<svg id="svg" version="1.1" xmlns="http://www.w3.org/2000/svg" xmlns:xlink="http://www.w3.org/1999/xlink" width="400" height="61.308411214953274" viewBox="0, 0, 400,61.308411214953274"><g id="svgg"><path id="path0" d="M6.431 4.977 C 6.299 5.190,6.337 12.995,6.470 12.976 C 6.532 12.968,7.877 12.969,9.458 12.980 L 12.333 13.000 12.333 31.329 L 12.333 49.659 9.375 49.704 L 6.417 49.750 6.372 53.375 L 6.327 57.000 16.413 57.000 L 26.500 57.000 26.500 53.597 C 26.500 49.199,26.869 49.667,23.399 49.667 L 20.500 49.667 20.500 27.514 C 20.500 15.329,20.454 5.242,20.399 5.097 C 20.285 4.801,6.612 4.684,6.431 4.977 M234.000 5.011 C 234.000 5.107,233.935 5.146,233.855 5.097 C 233.773 5.046,233.718 6.749,233.730 8.961 C 233.747 12.348,233.786 12.918,234.000 12.932 C 234.137 12.942,235.806 12.961,237.708 12.975 L 241.167 13.000 241.167 18.532 C 241.167 23.086,241.129 24.012,240.952 23.770 C 240.834 23.609,240.665 23.491,240.577 23.508 C 240.088 23.604,239.696 23.464,239.618 23.167 C 239.566 22.967,239.391 22.833,239.182 22.833 C 238.920 22.833,238.833 22.729,238.833 22.409 C 238.833 22.167,238.744 21.997,238.625 22.012 C 237.878 22.109,237.366 21.977,237.285 21.667 C 237.216 21.402,237.058 21.333,236.516 21.333 C 235.899 21.333,235.833 21.293,235.833 20.917 C 235.833 20.688,235.777 20.509,235.708 20.520 C 234.813 20.661,233.667 20.468,233.667 20.177 C 233.667 19.748,224.674 19.636,224.251 20.059 C 224.122 20.188,224.062 20.340,224.119 20.397 C 224.176 20.454,223.754 20.500,223.183 20.500 C 222.171 20.500,221.667 20.718,221.667 21.155 C 221.667 21.253,221.442 21.343,221.167 21.354 C 220.352 21.388,220.248 21.422,220.293 21.636 C 220.316 21.748,220.147 21.925,219.918 22.030 C 219.688 22.135,219.500 22.358,219.500 22.527 C 219.500 22.754,219.375 22.833,219.014 22.833 C 218.359 22.833,218.000 22.987,218.000 23.268 C 218.000 23.407,217.826 23.500,217.566 23.500 C 217.244 23.500,217.156 23.566,217.229 23.755 C 217.293 23.922,217.183 24.076,216.913 24.198 C 216.686 24.302,216.500 24.525,216.500 24.693 C 216.500 24.911,216.376 25.000,216.073 25.000 C 215.839 25.000,215.684 25.060,215.729 25.133 C 215.848 25.325,215.550 25.750,215.298 25.750 C 215.180 25.750,215.059 25.919,215.030 26.125 C 214.991 26.399,214.865 26.500,214.562 26.500 C 214.334 26.500,214.192 26.573,214.248 26.663 C 214.408 26.923,214.002 27.536,213.737 27.435 C 213.555 27.365,213.500 27.509,213.500 28.060 C 213.500 28.688,213.455 28.775,213.139 28.763 C 212.845 28.752,212.766 28.860,212.715 29.333 C 212.630 30.140,212.543 30.343,212.304 30.293 C 212.081 30.246,212.063 30.329,212.025 31.613 C 212.003 32.373,211.955 32.483,211.625 32.530 C 211.259 32.582,211.248 32.643,211.167 35.167 C 211.094 37.417,211.048 37.747,210.813 37.730 C 210.349 37.697,210.362 40.495,210.826 40.617 C 211.150 40.701,211.307 42.674,211.198 45.290 C 211.187 45.555,211.302 45.694,211.591 45.767 C 211.990 45.867,212.098 46.350,212.045 47.792 C 212.041 47.906,212.143 48.000,212.273 48.000 C 212.554 48.000,212.863 48.729,212.729 49.078 C 212.668 49.237,212.789 49.396,213.067 49.523 C 213.376 49.664,213.500 49.848,213.500 50.165 C 213.500 50.465,213.631 50.681,213.903 50.826 C 214.160 50.963,214.284 51.155,214.246 51.354 C 214.211 51.537,214.281 51.667,214.414 51.667 C 214.720 51.667,215.194 52.154,215.075 52.347 C 214.987 52.489,215.228 52.573,215.556 52.515 C 215.633 52.501,215.735 52.640,215.782 52.823 C 215.830 53.006,216.007 53.199,216.176 53.253 C 216.345 53.307,216.529 53.497,216.586 53.675 C 216.643 53.854,216.832 54.000,217.006 54.000 C 217.182 54.000,217.429 54.203,217.563 54.458 C 217.695 54.710,217.847 54.898,217.901 54.875 C 218.233 54.735,218.640 54.881,218.715 55.167 C 218.784 55.432,218.942 55.500,219.484 55.500 C 220.138 55.500,220.252 55.609,220.197 56.176 C 220.192 56.228,220.500 56.288,220.881 56.310 C 221.546 56.350,221.904 56.585,221.729 56.867 C 221.684 56.940,222.176 57.000,222.823 57.000 C 223.865 57.000,224.000 57.036,224.000 57.314 C 224.000 57.788,224.387 57.829,228.946 57.831 C 233.237 57.833,233.667 57.772,233.667 57.155 C 233.667 57.070,234.154 57.000,234.750 57.000 C 235.712 57.000,235.833 56.964,235.833 56.676 C 235.833 56.415,235.969 56.343,236.542 56.301 C 237.131 56.259,237.259 56.187,237.303 55.875 C 237.348 55.557,237.459 55.500,238.027 55.500 C 238.551 55.500,238.716 55.429,238.783 55.176 C 238.829 54.998,239.028 54.829,239.225 54.801 C 239.449 54.769,239.603 54.610,239.637 54.375 C 239.687 54.017,239.959 53.920,240.803 53.957 C 240.925 53.962,240.983 53.863,240.933 53.733 C 240.884 53.605,240.916 53.500,241.005 53.500 C 241.099 53.500,241.167 54.232,241.167 55.250 L 241.167 57.000 248.253 57.000 L 255.340 57.000 255.295 53.375 L 255.250 49.750 252.292 49.704 L 249.333 49.659 249.314 27.538 C 249.304 15.371,249.285 5.304,249.272 5.167 C 249.244 4.854,234.000 4.698,234.000 5.011 M43.404 20.170 C 43.143 20.431,42.820 20.514,41.959 20.539 C 40.953 20.569,40.853 20.604,40.883 20.911 C 40.912 21.198,40.806 21.258,40.190 21.302 C 39.637 21.342,39.443 21.432,39.379 21.677 C 39.298 21.987,38.905 22.089,38.115 22.007 C 37.948 21.990,37.826 22.074,37.843 22.196 C 37.908 22.675,37.819 22.833,37.484 22.833 C 37.276 22.833,37.100 22.967,37.048 23.167 C 36.972 23.457,36.597 23.598,36.116 23.517 C 35.890 23.478,35.472 23.987,35.583 24.165 C 35.673 24.311,35.506 24.360,35.042 24.323 C 34.973 24.318,34.874 24.487,34.822 24.698 C 34.770 24.910,34.610 25.075,34.468 25.064 C 34.294 25.051,34.236 25.146,34.290 25.354 C 34.366 25.644,33.755 26.061,33.485 25.904 C 33.431 25.872,33.377 26.110,33.365 26.432 C 33.338 27.155,33.221 27.355,32.862 27.296 C 32.670 27.264,32.568 27.386,32.532 27.690 C 32.494 28.019,32.406 28.111,32.185 28.053 C 31.939 27.989,31.884 28.094,31.861 28.682 C 31.830 29.489,31.818 29.509,31.384 29.542 C 31.208 29.555,31.063 29.682,31.062 29.825 C 31.053 30.787,30.986 31.000,30.692 31.000 C 30.428 31.000,30.379 31.150,30.352 32.028 C 30.327 32.868,30.250 33.122,29.932 33.417 L 29.543 33.778 29.520 38.969 L 29.498 44.160 29.916 44.265 C 30.300 44.361,30.538 45.872,30.353 47.042 C 30.342 47.110,30.483 47.167,30.667 47.167 C 30.903 47.167,31.000 47.278,31.000 47.550 C 31.000 47.761,31.094 48.034,31.208 48.158 C 31.375 48.337,31.375 48.359,31.208 48.265 C 31.094 48.200,31.000 48.226,31.000 48.323 C 31.000 48.421,31.079 48.500,31.177 48.500 C 31.274 48.500,31.304 48.580,31.243 48.678 C 31.177 48.784,31.255 48.834,31.436 48.803 C 31.658 48.764,31.763 48.881,31.828 49.241 C 31.877 49.510,31.973 49.717,32.042 49.699 C 32.372 49.614,32.500 49.693,32.500 49.981 C 32.500 50.383,32.917 51.194,33.053 51.058 C 33.111 51.001,33.233 51.152,33.325 51.394 C 33.417 51.635,33.588 51.833,33.706 51.833 C 33.824 51.833,33.995 52.002,34.085 52.208 C 34.176 52.415,34.362 52.583,34.500 52.583 C 34.637 52.583,34.774 52.752,34.803 52.958 C 34.837 53.199,34.971 53.333,35.178 53.333 C 35.466 53.333,35.577 53.509,35.520 53.875 C 35.509 53.944,35.687 54.000,35.917 54.000 C 36.249 54.000,36.333 54.084,36.333 54.411 C 36.333 54.707,36.403 54.796,36.581 54.728 C 36.743 54.666,36.886 54.782,36.994 55.066 C 37.084 55.305,37.202 55.500,37.256 55.500 C 37.309 55.500,37.307 55.425,37.250 55.333 C 37.193 55.242,37.222 55.167,37.314 55.167 C 37.405 55.167,37.527 55.242,37.583 55.333 C 37.640 55.425,37.869 55.500,38.093 55.500 C 38.457 55.500,38.533 55.585,38.486 55.940 C 38.459 56.138,38.914 56.328,39.418 56.331 C 39.737 56.332,39.996 56.455,40.128 56.667 C 40.280 56.911,40.517 57.000,41.011 57.000 C 41.447 57.000,41.647 57.063,41.576 57.178 C 41.344 57.554,42.074 57.791,43.563 57.821 C 44.841 57.847,45.099 57.900,45.292 58.176 C 45.574 58.579,51.570 58.682,51.991 58.292 C 52.171 58.125,52.192 58.125,52.098 58.292 C 51.948 58.558,52.435 58.573,52.599 58.308 C 52.679 58.179,52.641 58.159,52.484 58.248 C 52.306 58.349,52.310 58.317,52.500 58.117 C 52.680 57.927,53.133 57.840,54.116 57.807 C 55.382 57.765,55.489 57.734,55.577 57.381 C 55.657 57.062,55.784 57.000,56.352 57.000 C 56.885 57.000,57.049 56.930,57.116 56.675 C 57.180 56.431,57.372 56.338,57.892 56.300 C 58.458 56.259,58.593 56.184,58.635 55.884 C 58.678 55.584,58.813 55.509,59.385 55.467 C 59.850 55.434,60.069 55.344,60.039 55.201 C 60.015 55.082,60.227 54.903,60.511 54.804 C 60.898 54.670,61.007 54.546,60.946 54.312 C 60.883 54.071,60.956 54.000,61.266 54.000 C 61.556 54.000,61.667 53.908,61.667 53.667 C 61.667 53.388,61.778 53.333,62.343 53.333 C 62.752 53.333,62.979 53.267,62.917 53.167 C 62.860 53.075,62.893 53.000,62.990 53.000 C 63.087 53.000,63.148 52.935,63.125 52.855 C 63.102 52.776,63.259 52.567,63.474 52.391 C 63.688 52.216,63.876 51.872,63.890 51.627 C 63.909 51.317,64.030 51.154,64.292 51.088 C 64.509 51.033,64.667 50.866,64.667 50.690 C 64.667 50.523,64.858 50.299,65.093 50.193 C 65.327 50.086,65.475 49.927,65.421 49.840 C 65.244 49.555,65.521 48.867,65.847 48.781 C 66.096 48.716,66.167 48.548,66.167 48.016 C 66.167 47.450,66.222 47.333,66.492 47.333 C 66.779 47.333,66.824 47.197,66.867 46.208 C 66.905 45.341,66.974 45.083,67.167 45.083 C 67.610 45.083,67.662 44.792,67.664 42.292 C 67.667 39.945,67.682 39.833,68.000 39.833 C 68.299 39.833,68.333 39.722,68.333 38.760 C 68.333 37.776,68.305 37.691,68.000 37.750 C 67.698 37.808,67.456 34.399,67.654 32.875 C 67.670 32.756,67.500 32.667,67.257 32.667 C 66.851 32.667,66.833 32.625,66.833 31.692 C 66.833 30.930,66.761 30.653,66.500 30.417 C 66.317 30.251,66.164 29.920,66.161 29.683 C 66.155 29.191,65.764 28.587,65.540 28.725 C 65.459 28.775,65.398 28.652,65.404 28.450 C 65.413 28.192,65.306 28.068,65.042 28.030 C 64.779 27.993,64.659 27.855,64.642 27.572 C 64.628 27.349,64.609 27.073,64.600 26.958 C 64.591 26.844,64.412 26.653,64.203 26.534 C 63.994 26.415,63.861 26.257,63.906 26.184 C 63.951 26.110,63.804 25.951,63.578 25.830 C 63.352 25.709,63.167 25.516,63.167 25.400 C 63.167 25.284,63.017 25.142,62.833 25.083 C 62.650 25.025,62.500 24.872,62.500 24.742 C 62.500 24.612,62.317 24.460,62.093 24.404 C 61.845 24.342,61.666 24.161,61.635 23.943 C 61.606 23.745,61.471 23.573,61.333 23.561 C 61.196 23.549,60.994 23.530,60.885 23.519 C 60.775 23.509,60.713 23.359,60.746 23.187 C 60.779 23.016,60.719 22.877,60.611 22.880 C 59.751 22.905,59.482 22.807,59.333 22.417 C 59.207 22.083,59.060 22.000,58.599 22.000 C 58.174 22.000,57.995 21.915,57.920 21.676 C 57.843 21.435,57.637 21.339,57.117 21.301 C 56.545 21.259,56.417 21.189,56.417 20.917 C 56.417 20.621,56.289 20.578,55.301 20.534 C 54.364 20.493,54.168 20.433,54.081 20.159 C 53.917 19.643,43.921 19.653,43.404 20.170 M138.735 19.976 C 138.929 20.289,138.488 20.490,137.544 20.519 C 136.979 20.536,136.522 20.595,136.528 20.650 C 136.593 21.217,136.472 21.333,135.818 21.333 C 135.276 21.333,135.118 21.402,135.048 21.667 C 134.967 21.978,134.731 22.054,133.825 22.062 C 133.682 22.063,133.555 22.208,133.542 22.384 C 133.509 22.826,133.371 22.884,132.115 22.989 C 132.041 22.995,132.024 23.070,132.076 23.155 C 132.197 23.351,131.500 23.853,131.288 23.722 C 131.196 23.665,131.178 23.772,131.243 23.979 C 131.334 24.266,131.287 24.333,130.996 24.333 C 130.781 24.333,130.602 24.462,130.552 24.653 C 130.506 24.828,130.284 25.018,130.058 25.075 C 129.742 25.154,129.672 25.253,129.752 25.506 C 129.837 25.773,129.785 25.826,129.470 25.792 C 129.181 25.760,129.071 25.844,129.031 26.125 C 128.997 26.360,128.824 26.538,128.567 26.602 C 128.258 26.680,128.181 26.783,128.256 27.019 C 128.311 27.192,128.276 27.343,128.178 27.354 C 128.080 27.366,127.931 27.384,127.847 27.396 C 127.763 27.407,127.632 27.485,127.556 27.568 C 127.475 27.657,127.504 27.670,127.625 27.600 C 127.740 27.534,127.833 27.560,127.833 27.657 C 127.833 27.754,127.758 27.833,127.667 27.833 C 127.575 27.833,127.500 28.021,127.500 28.250 C 127.500 28.622,127.344 28.747,126.958 28.686 C 126.826 28.665,126.822 28.677,126.760 29.351 C 126.695 30.067,126.519 30.376,126.240 30.269 C 126.098 30.215,126.016 30.226,126.057 30.294 C 126.250 30.614,125.896 31.749,125.618 31.701 C 125.298 31.646,125.304 31.624,125.249 33.310 C 125.212 34.464,125.002 34.957,124.643 34.736 C 124.466 34.626,124.471 43.205,124.648 43.480 C 124.729 43.606,124.879 43.658,124.981 43.595 C 125.161 43.484,125.248 44.380,125.172 45.542 C 125.155 45.800,125.227 46.000,125.339 46.000 C 125.450 46.000,125.492 46.115,125.434 46.265 C 125.366 46.442,125.443 46.560,125.666 46.618 C 125.907 46.681,126.000 46.845,126.000 47.209 C 126.000 47.529,126.149 47.850,126.410 48.092 C 126.677 48.339,126.795 48.599,126.749 48.837 C 126.672 49.241,127.067 49.748,127.332 49.584 C 127.425 49.527,127.500 49.641,127.500 49.839 C 127.500 50.050,127.629 50.232,127.814 50.280 C 128.030 50.337,128.162 50.572,128.236 51.031 C 128.311 51.503,128.439 51.726,128.671 51.786 C 128.852 51.834,129.000 51.944,129.000 52.031 C 129.000 52.242,129.437 52.674,129.543 52.568 C 129.589 52.522,129.675 52.675,129.733 52.909 C 129.800 53.173,129.957 53.333,130.149 53.333 C 130.478 53.333,130.895 53.717,130.737 53.874 C 130.686 53.925,130.743 53.962,130.864 53.957 C 131.696 53.921,131.969 54.021,132.063 54.397 C 132.118 54.615,132.321 54.835,132.515 54.886 C 132.709 54.936,132.822 55.050,132.768 55.138 C 132.638 55.349,133.054 55.500,133.764 55.500 C 134.077 55.500,134.324 55.556,134.314 55.625 C 134.264 55.942,134.345 56.331,134.458 56.314 C 134.863 56.250,135.830 56.353,135.814 56.458 C 135.748 56.875,135.905 56.986,136.625 57.033 C 137.195 57.069,137.417 57.153,137.417 57.333 C 137.417 57.758,137.694 57.828,139.375 57.831 C 140.652 57.833,141.000 57.883,141.000 58.066 C 141.000 58.657,148.063 58.756,148.250 58.167 C 148.345 57.868,148.514 57.831,149.886 57.809 C 152.196 57.771,152.085 57.794,152.070 57.375 C 152.058 57.029,152.129 57.000,152.992 57.000 C 153.735 57.000,153.976 56.932,154.167 56.667 C 154.343 56.423,154.598 56.333,155.120 56.333 C 155.765 56.333,155.833 56.294,155.833 55.926 C 155.833 55.566,155.916 55.513,156.542 55.468 C 157.037 55.432,157.250 55.342,157.250 55.167 C 157.250 54.992,157.463 54.901,157.958 54.865 C 158.573 54.821,158.667 54.763,158.667 54.428 C 158.667 54.130,158.784 54.018,159.178 53.939 C 159.484 53.878,159.644 53.765,159.578 53.657 C 159.516 53.557,159.622 53.437,159.818 53.386 C 160.012 53.335,160.216 53.110,160.272 52.887 C 160.329 52.663,160.459 52.513,160.563 52.553 C 160.667 52.592,160.848 52.522,160.966 52.396 C 161.083 52.270,161.130 52.167,161.069 52.167 C 161.009 52.167,161.052 52.055,161.165 51.919 C 161.278 51.782,161.430 51.707,161.503 51.752 C 161.575 51.796,161.716 51.600,161.815 51.314 C 161.940 50.955,162.073 50.826,162.248 50.893 C 162.399 50.951,162.508 50.891,162.521 50.745 C 162.532 50.610,162.560 50.425,162.583 50.333 C 162.606 50.242,162.634 50.021,162.646 49.843 C 162.661 49.611,162.763 49.538,163.007 49.585 C 163.327 49.646,163.345 49.581,163.299 48.534 C 163.247 47.342,163.292 47.391,162.208 47.353 C 161.784 47.338,161.667 47.261,161.667 47.000 C 161.667 46.817,161.610 46.676,161.542 46.686 C 160.623 46.831,159.665 46.635,159.577 46.283 C 159.501 45.983,159.350 45.891,158.876 45.859 C 158.499 45.834,158.185 45.696,158.043 45.493 C 157.768 45.100,155.669 44.996,155.664 45.375 C 155.662 45.514,155.608 45.500,155.500 45.333 C 155.411 45.196,155.328 45.140,155.315 45.208 C 155.272 45.440,155.208 45.998,155.188 46.333 C 155.172 46.576,155.049 46.667,154.732 46.667 C 154.416 46.667,154.324 46.734,154.393 46.914 C 154.491 47.172,153.961 47.572,153.772 47.383 C 153.714 47.325,153.667 47.478,153.667 47.722 C 153.667 48.123,153.298 48.322,152.920 48.125 C 152.876 48.102,152.722 48.252,152.577 48.458 C 152.433 48.665,152.178 48.833,152.011 48.833 C 151.643 48.833,151.263 49.252,151.412 49.493 C 151.481 49.604,151.249 49.667,150.771 49.667 C 150.169 49.667,150.002 49.732,149.917 50.000 C 149.819 50.308,148.357 50.495,147.208 50.346 C 147.089 50.330,147.000 50.500,147.000 50.743 L 147.000 51.167 145.123 51.167 C 143.336 51.167,143.238 51.149,143.081 50.792 C 142.945 50.482,142.763 50.408,142.033 50.366 C 141.429 50.331,141.046 50.212,140.824 49.991 C 140.646 49.813,140.280 49.667,140.011 49.667 C 139.663 49.667,139.491 49.567,139.413 49.321 C 139.347 49.114,139.210 49.012,139.068 49.066 C 138.939 49.116,138.833 49.084,138.833 48.995 C 138.833 48.906,138.646 48.833,138.417 48.833 C 138.111 48.833,138.000 48.744,138.000 48.500 C 138.000 48.256,137.889 48.167,137.583 48.167 C 137.272 48.167,137.167 48.079,137.167 47.818 C 137.167 47.609,137.033 47.434,136.833 47.382 C 136.650 47.334,136.491 47.191,136.479 47.064 C 136.468 46.937,136.440 46.758,136.417 46.667 C 136.394 46.575,136.366 46.375,136.354 46.222 C 136.343 46.069,136.287 45.991,136.230 46.048 C 136.107 46.171,135.667 45.761,135.667 45.523 C 135.667 45.431,135.517 45.308,135.333 45.250 C 135.150 45.192,135.000 45.003,135.000 44.830 C 135.000 44.363,134.643 43.667,134.404 43.667 C 134.260 43.667,134.176 43.296,134.139 42.500 L 134.083 41.333 148.708 41.333 L 163.333 41.333 163.333 38.680 C 163.333 35.899,163.279 35.500,162.899 35.500 C 162.728 35.500,162.661 35.234,162.646 34.500 C 162.634 33.950,162.606 33.350,162.583 33.167 C 162.560 32.983,162.532 32.758,162.521 32.667 C 162.509 32.575,162.444 32.509,162.375 32.520 C 161.930 32.590,161.833 32.446,161.828 31.708 C 161.823 31.005,161.507 30.215,161.310 30.412 C 161.270 30.453,161.222 30.358,161.204 30.201 C 161.131 29.561,161.058 29.392,160.704 29.037 C 160.500 28.833,160.333 28.517,160.333 28.333 C 160.333 28.111,160.222 28.000,160.000 28.000 C 159.785 28.000,159.659 27.882,159.646 27.667 C 159.634 27.483,159.616 27.240,159.604 27.125 C 159.593 27.010,159.415 26.843,159.208 26.752 C 158.978 26.651,158.833 26.442,158.833 26.210 C 158.833 25.873,158.607 25.743,158.135 25.810 C 158.072 25.819,158.048 25.685,158.081 25.512 C 158.124 25.291,158.021 25.166,157.738 25.095 C 157.480 25.030,157.333 24.874,157.333 24.663 C 157.333 24.420,157.221 24.333,156.907 24.333 C 156.672 24.333,156.516 24.276,156.559 24.206 C 156.659 24.045,156.251 23.479,156.060 23.513 C 155.578 23.601,155.176 23.458,155.083 23.167 C 155.025 22.983,154.833 22.833,154.655 22.833 C 154.421 22.833,154.333 22.717,154.333 22.406 C 154.333 22.099,154.251 21.987,154.042 22.009 C 153.091 22.105,152.686 21.998,152.750 21.667 C 152.806 21.374,152.724 21.333,152.085 21.333 C 151.456 21.333,151.349 21.282,151.303 20.958 C 151.247 20.562,151.208 20.550,149.958 20.519 C 149.411 20.506,149.167 20.430,149.167 20.273 C 149.167 20.129,149.013 20.063,148.749 20.092 C 148.520 20.117,148.375 20.067,148.428 19.981 C 148.488 19.885,146.627 19.830,143.592 19.838 C 140.878 19.846,138.693 19.908,138.735 19.976 M190.667 20.038 C 190.667 20.120,190.579 20.132,190.472 20.066 C 190.341 19.985,190.312 20.036,190.383 20.223 C 190.487 20.494,189.986 20.555,187.642 20.560 C 187.491 20.560,187.396 20.641,187.432 20.739 C 187.572 21.124,187.200 21.311,186.197 21.361 C 185.334 21.404,185.161 21.460,185.218 21.679 C 185.256 21.825,185.204 21.953,185.102 21.963 C 185.000 21.974,184.670 21.998,184.369 22.017 C 184.068 22.036,183.783 22.114,183.735 22.190 C 183.688 22.267,183.784 22.286,183.950 22.233 C 184.158 22.165,184.122 22.242,183.833 22.481 C 183.604 22.671,183.285 22.828,183.125 22.830 C 182.951 22.832,182.833 22.961,182.833 23.149 C 182.833 23.397,182.687 23.479,182.154 23.530 C 181.315 23.610,181.353 23.684,181.319 21.944 L 181.291 20.500 173.854 20.542 L 166.417 20.583 166.417 24.111 C 166.417 26.051,166.479 27.701,166.555 27.777 C 166.631 27.854,168.150 27.940,169.930 27.968 L 173.167 28.020 173.167 38.843 L 173.167 49.667 169.917 49.667 C 167.740 49.667,166.667 49.725,166.667 49.843 C 166.667 49.940,166.603 49.980,166.525 49.932 C 166.447 49.884,166.391 51.436,166.400 53.381 L 166.417 56.917 176.875 56.960 L 187.333 57.003 187.333 53.598 C 187.333 49.199,187.702 49.667,184.232 49.667 L 181.333 49.667 181.333 40.667 L 181.333 31.667 182.016 31.667 C 182.558 31.667,182.716 31.598,182.785 31.333 C 182.833 31.149,183.012 31.000,183.186 31.000 C 183.410 31.000,183.500 30.880,183.500 30.583 C 183.500 30.207,183.566 30.167,184.182 30.167 C 184.724 30.167,184.882 30.098,184.952 29.833 C 185.032 29.526,185.330 29.438,186.258 29.450 C 186.354 29.451,186.444 29.304,186.457 29.124 C 186.491 28.675,186.472 28.683,187.622 28.638 C 188.184 28.616,188.602 28.530,188.550 28.447 C 188.356 28.133,188.974 28.005,190.697 28.003 C 192.332 28.000,192.486 28.027,192.583 28.333 C 192.642 28.517,192.834 28.667,193.011 28.667 C 193.244 28.667,193.333 28.783,193.333 29.083 C 193.333 29.389,193.422 29.500,193.667 29.500 C 193.951 29.500,194.221 32.339,193.972 32.708 C 193.956 32.731,194.028 32.907,194.131 33.099 C 194.259 33.338,194.264 33.503,194.147 33.620 C 194.030 33.737,194.111 33.825,194.404 33.899 L 194.833 34.006 194.833 45.503 L 194.833 57.000 201.708 56.997 C 205.490 56.996,208.683 56.932,208.804 56.855 C 209.090 56.673,209.053 49.988,208.765 49.794 C 208.665 49.727,207.327 49.671,205.792 49.669 L 203.000 49.667 202.974 39.292 C 202.959 33.585,202.951 28.823,202.955 28.708 C 202.959 28.594,202.899 28.500,202.820 28.500 C 202.741 28.500,202.718 28.393,202.768 28.262 C 202.835 28.088,202.766 28.049,202.513 28.115 C 202.201 28.197,201.965 26.274,202.147 25.125 C 202.158 25.056,202.017 25.000,201.833 25.000 C 201.592 25.000,201.500 24.889,201.500 24.597 C 201.500 23.976,201.328 23.667,200.982 23.667 C 200.757 23.667,200.667 23.548,200.667 23.250 C 200.667 22.944,200.578 22.833,200.333 22.833 C 200.035 22.833,199.906 22.566,199.984 22.113 C 199.998 22.037,199.941 22.017,199.859 22.067 C 199.777 22.118,199.498 21.977,199.239 21.755 C 198.980 21.532,198.539 21.327,198.259 21.300 C 197.979 21.272,197.741 21.156,197.729 21.042 C 197.718 20.927,197.699 20.762,197.688 20.675 C 197.676 20.587,197.498 20.523,197.292 20.531 C 196.109 20.581,194.660 20.479,194.738 20.352 C 194.789 20.271,194.723 20.116,194.593 20.008 C 194.313 19.776,190.667 19.804,190.667 20.038 M66.167 24.245 L 66.167 28.000 68.063 28.000 C 69.880 28.000,70.859 28.262,70.132 28.554 C 70.014 28.601,70.085 28.646,70.292 28.654 C 70.626 28.665,70.874 29.840,70.625 30.233 C 70.552 30.347,71.206 30.995,71.322 30.924 C 71.383 30.886,71.415 31.169,71.393 31.553 C 71.345 32.374,71.612 33.167,71.937 33.167 C 72.102 33.167,72.168 33.412,72.172 34.042 C 72.177 34.868,72.487 35.624,72.725 35.386 C 72.836 35.275,72.911 36.114,72.852 36.797 C 72.818 37.186,73.170 37.667,73.488 37.667 C 73.597 37.667,73.667 38.091,73.667 38.750 C 73.667 39.722,73.701 39.833,74.000 39.833 C 74.332 39.833,74.439 40.393,74.341 41.619 C 74.319 41.888,74.427 42.017,74.739 42.095 C 75.175 42.205,75.229 42.490,75.226 44.700 C 75.225 44.856,75.282 44.948,75.351 44.906 C 75.420 44.863,75.525 44.905,75.583 45.000 C 75.642 45.095,75.741 45.141,75.803 45.102 C 75.866 45.063,75.900 45.402,75.880 45.854 C 75.849 46.547,75.908 46.734,76.255 47.035 C 76.596 47.332,76.667 47.545,76.667 48.280 C 76.667 48.877,76.735 49.168,76.875 49.169 C 77.031 49.171,77.027 49.207,76.861 49.313 C 76.692 49.420,76.722 49.476,76.986 49.545 C 77.322 49.633,77.437 50.114,77.342 51.043 C 77.306 51.399,77.766 51.895,77.999 51.751 C 78.105 51.685,78.167 52.053,78.167 52.756 C 78.167 53.724,78.209 53.876,78.500 53.952 C 78.799 54.030,78.991 55.166,78.853 56.042 C 78.842 56.110,78.890 56.155,78.958 56.140 C 79.371 56.053,79.667 56.411,79.667 57.000 C 79.667 57.846,79.599 57.833,84.004 57.833 L 87.815 57.833 87.866 57.042 C 87.907 56.395,87.970 56.259,88.208 56.299 C 88.369 56.326,88.508 56.288,88.518 56.216 C 88.559 55.909,88.625 55.045,88.645 54.542 C 88.659 54.202,88.753 54.000,88.897 54.000 C 89.174 54.000,89.328 53.493,89.331 52.570 C 89.333 52.019,89.411 51.848,89.744 51.670 C 89.969 51.549,90.145 51.330,90.134 51.184 C 90.063 50.245,90.185 49.683,90.481 49.589 C 90.653 49.535,90.792 49.398,90.788 49.287 C 90.740 47.869,90.846 47.333,91.177 47.333 C 91.365 47.333,91.473 47.258,91.417 47.167 C 91.360 47.075,91.392 47.000,91.488 47.000 C 91.584 47.000,91.652 46.869,91.638 46.708 C 91.570 45.896,91.697 45.196,91.965 44.906 C 92.147 44.710,92.283 44.264,92.313 43.766 C 92.361 42.965,92.665 42.400,92.923 42.633 C 92.995 42.697,93.006 42.619,92.948 42.458 C 92.891 42.298,92.922 42.167,93.017 42.167 C 93.113 42.167,93.177 41.998,93.160 41.792 C 93.059 40.540,93.172 39.871,93.500 39.785 C 93.787 39.710,93.833 39.558,93.833 38.682 C 93.833 37.778,93.870 37.667,94.167 37.667 C 94.467 37.667,94.500 37.556,94.500 36.536 C 94.500 35.409,94.501 35.406,94.958 35.427 C 95.317 35.443,95.412 35.526,95.397 35.807 C 95.382 36.072,95.473 36.167,95.741 36.167 C 96.064 36.167,96.100 36.243,96.054 36.825 C 95.990 37.628,96.236 38.333,96.579 38.333 C 96.783 38.333,96.833 38.567,96.833 39.510 C 96.833 40.157,96.893 40.649,96.966 40.604 C 97.301 40.398,97.550 40.848,97.568 41.692 C 97.579 42.182,97.643 42.670,97.711 42.777 C 97.779 42.883,97.785 43.108,97.724 43.277 C 97.663 43.445,97.672 43.531,97.743 43.466 C 98.020 43.216,98.314 43.831,98.365 44.769 C 98.410 45.593,98.465 45.742,98.709 45.701 C 99.007 45.651,99.076 45.964,99.005 47.042 C 98.988 47.300,99.061 47.500,99.172 47.500 C 99.280 47.500,99.327 47.609,99.276 47.741 C 99.220 47.888,99.312 48.024,99.509 48.086 C 99.762 48.166,99.834 48.343,99.836 48.886 C 99.839 49.825,99.991 50.333,100.269 50.333 C 100.494 50.333,100.600 51.038,100.517 51.974 C 100.496 52.211,100.551 52.321,100.658 52.255 C 100.754 52.196,100.833 52.264,100.833 52.407 C 100.833 52.550,100.927 52.648,101.042 52.625 C 101.188 52.596,101.265 52.918,101.299 53.713 C 101.327 54.335,101.405 54.809,101.474 54.766 C 101.795 54.568,102.020 55.019,102.057 55.932 C 102.092 56.806,102.137 56.923,102.465 56.970 C 102.729 57.008,102.833 57.137,102.833 57.428 L 102.833 57.833 106.653 57.833 C 111.271 57.833,111.000 57.911,111.000 56.592 C 111.000 55.638,111.035 55.538,111.428 55.358 C 111.722 55.225,111.847 55.046,111.827 54.790 C 111.743 53.756,111.837 53.178,112.073 53.269 C 112.326 53.366,112.456 52.897,112.541 51.583 C 112.574 51.065,112.648 50.922,112.875 50.940 C 113.062 50.955,113.176 50.835,113.192 50.606 C 113.206 50.410,113.235 50.175,113.256 50.083 C 113.277 49.992,113.304 49.477,113.314 48.941 C 113.329 48.172,113.383 47.984,113.570 48.055 C 113.885 48.176,114.000 47.823,114.000 46.736 C 114.000 45.965,114.045 45.833,114.313 45.833 C 114.660 45.833,114.833 45.261,114.833 44.118 C 114.833 43.748,114.883 43.494,114.943 43.554 C 115.228 43.839,115.500 43.233,115.500 42.313 C 115.500 41.774,115.575 41.324,115.667 41.313 C 115.758 41.301,115.927 41.282,116.042 41.271 C 116.251 41.250,116.274 41.121,116.313 39.769 C 116.329 39.195,116.393 39.042,116.612 39.060 C 116.836 39.079,116.903 38.891,116.960 38.095 C 117.018 37.291,117.108 37.047,117.443 36.783 C 117.715 36.569,117.845 36.311,117.826 36.021 C 117.766 35.081,117.838 34.483,118.000 34.583 C 118.092 34.640,118.167 34.602,118.167 34.500 C 118.167 34.398,118.231 34.353,118.309 34.401 C 118.387 34.450,118.464 34.030,118.481 33.469 C 118.516 32.293,118.576 32.142,118.949 32.286 C 119.136 32.357,119.182 32.326,119.096 32.188 C 119.028 32.076,119.055 31.884,119.158 31.760 C 119.261 31.636,119.334 31.471,119.319 31.393 C 119.169 30.552,119.361 29.500,119.667 29.500 C 119.850 29.500,119.991 29.444,119.980 29.375 C 119.969 29.306,119.969 28.969,119.980 28.625 L 120.000 28.000 122.583 28.000 L 125.167 28.000 125.167 24.450 C 125.167 21.911,125.110 20.843,124.967 20.700 C 124.816 20.550,122.684 20.500,116.395 20.500 L 108.023 20.500 108.006 24.250 L 107.989 28.000 109.911 28.000 C 111.326 28.000,111.839 28.055,111.855 28.208 C 111.955 29.188,111.773 30.101,111.410 30.438 C 111.075 30.747,111.008 30.990,110.966 32.027 C 110.923 33.084,110.877 33.243,110.625 33.201 C 110.370 33.158,110.333 33.300,110.333 34.326 C 110.333 35.457,110.318 35.500,109.930 35.500 C 109.548 35.500,109.527 35.553,109.522 36.527 C 109.517 37.500,109.311 37.942,108.962 37.727 C 108.887 37.680,108.836 37.704,108.849 37.779 C 109.035 38.851,108.806 40.000,108.406 40.000 C 108.099 40.000,107.987 40.082,108.009 40.292 C 108.128 41.469,107.990 42.370,107.701 42.294 C 107.441 42.226,107.396 42.346,107.362 43.212 C 107.340 43.763,107.212 44.367,107.075 44.563 C 106.821 44.925,106.735 44.926,106.378 44.568 C 106.265 44.456,106.102 44.338,106.016 44.307 C 105.929 44.275,105.826 43.800,105.787 43.250 C 105.724 42.383,105.667 42.243,105.357 42.197 C 105.035 42.149,105.000 42.040,105.000 41.072 C 105.000 40.120,104.964 40.000,104.675 40.000 C 104.392 40.000,104.343 39.863,104.300 38.958 C 104.257 38.063,104.197 37.894,103.875 37.752 C 103.516 37.595,103.395 36.812,103.454 35.047 C 103.458 34.935,103.320 34.799,103.147 34.744 C 102.922 34.672,102.826 34.472,102.809 34.030 C 102.795 33.693,102.769 33.304,102.750 33.167 C 102.731 33.029,102.705 32.827,102.691 32.718 C 102.678 32.609,102.517 32.548,102.333 32.583 C 102.030 32.642,102.000 32.558,102.000 31.667 C 102.000 31.128,101.924 30.639,101.831 30.582 C 101.737 30.524,101.704 30.407,101.757 30.322 C 101.810 30.236,101.736 30.167,101.593 30.167 C 101.402 30.167,101.327 29.978,101.309 29.458 C 101.295 29.069,101.276 28.600,101.267 28.417 C 101.251 28.113,101.381 28.076,102.750 28.000 L 104.250 27.917 104.295 24.296 L 104.340 20.675 103.962 20.580 C 103.754 20.528,99.571 20.508,94.667 20.535 L 85.750 20.583 85.717 24.297 C 85.692 27.099,85.733 28.004,85.884 27.986 C 85.994 27.972,86.815 27.969,87.708 27.980 L 89.333 28.000 89.333 28.731 C 89.333 29.321,89.269 29.478,89.000 29.548 C 88.714 29.623,88.667 29.776,88.667 30.633 C 88.667 31.558,88.636 31.638,88.250 31.735 C 87.861 31.833,87.833 31.909,87.833 32.880 C 87.833 33.730,87.774 33.957,87.508 34.123 C 87.259 34.278,87.172 34.549,87.133 35.288 C 87.090 36.122,87.039 36.250,86.750 36.250 C 86.394 36.250,86.382 36.290,86.353 37.614 C 86.337 38.322,86.273 38.497,86.000 38.583 C 85.721 38.672,85.667 38.836,85.667 39.581 C 85.667 40.764,85.547 41.079,85.203 40.796 C 84.976 40.609,84.969 40.628,85.145 40.958 C 85.256 41.167,85.275 41.333,85.186 41.333 C 85.099 41.333,84.991 41.240,84.946 41.125 C 84.901 41.010,84.871 41.104,84.880 41.333 C 84.928 42.697,84.836 43.148,84.520 43.087 C 84.236 43.032,84.204 43.152,84.182 44.379 C 84.168 45.123,84.141 45.745,84.120 45.762 C 83.484 46.281,83.063 45.243,83.318 43.779 C 83.331 43.704,83.280 43.680,83.205 43.727 C 82.881 43.926,82.684 43.508,82.650 42.546 C 82.614 41.545,82.393 41.174,81.985 41.426 C 81.899 41.479,81.833 40.987,81.833 40.293 C 81.833 39.543,81.752 38.980,81.625 38.842 C 81.456 38.661,81.461 38.643,81.651 38.751 C 81.808 38.841,81.846 38.821,81.766 38.692 C 81.701 38.587,81.539 38.500,81.407 38.500 C 81.198 38.500,81.045 37.577,81.149 36.952 C 81.199 36.652,80.793 36.147,80.571 36.232 C 80.383 36.304,80.333 36.133,80.333 35.425 C 80.333 34.374,80.219 34.000,79.899 34.000 C 79.732 34.000,79.661 33.753,79.647 33.125 C 79.617 31.749,79.616 31.745,79.208 31.802 C 78.859 31.851,78.833 31.792,78.833 30.941 C 78.833 29.874,78.720 29.500,78.399 29.500 C 78.235 29.500,78.167 29.280,78.167 28.750 L 78.167 28.000 80.240 28.000 C 81.381 28.000,82.356 27.932,82.407 27.849 C 82.491 27.712,82.572 21.308,82.494 20.917 C 82.475 20.825,82.468 20.699,82.477 20.636 C 82.485 20.573,78.819 20.515,74.330 20.506 L 66.167 20.489 66.167 24.245 M144.667 26.740 C 144.667 26.872,144.753 27.034,144.859 27.099 C 144.978 27.173,145.006 27.145,144.933 27.026 C 144.867 26.920,144.893 26.833,144.990 26.833 C 145.087 26.833,145.167 26.908,145.167 27.000 C 145.167 27.097,145.726 27.167,146.510 27.167 C 147.806 27.167,147.852 27.180,147.802 27.540 C 147.769 27.778,147.840 27.919,148.000 27.931 C 148.137 27.941,148.487 27.961,148.776 27.975 C 149.219 27.996,149.288 28.054,149.213 28.340 C 149.164 28.528,149.190 28.669,149.270 28.654 C 149.878 28.543,150.184 28.682,150.077 29.021 C 150.001 29.259,150.025 29.338,150.149 29.261 C 150.250 29.198,150.333 29.226,150.333 29.323 C 150.333 29.421,150.438 29.500,150.565 29.500 C 150.692 29.500,150.786 29.628,150.773 29.785 C 150.757 29.982,150.878 30.071,151.167 30.076 C 151.510 30.082,151.576 30.157,151.541 30.500 C 151.511 30.797,151.542 30.850,151.648 30.686 C 151.795 30.458,152.228 30.984,152.244 31.409 C 152.247 31.497,152.400 31.609,152.583 31.659 C 152.775 31.711,152.917 31.891,152.917 32.083 C 152.917 32.302,153.046 32.435,153.292 32.470 C 153.600 32.514,153.667 32.628,153.667 33.111 C 153.667 33.558,153.746 33.719,154.000 33.785 C 154.216 33.841,154.333 34.012,154.333 34.269 L 154.333 34.667 144.250 34.667 L 134.167 34.667 134.167 34.240 C 134.167 34.006,134.226 33.851,134.300 33.896 C 134.574 34.065,134.867 33.690,134.949 33.064 C 135.046 32.328,135.322 31.879,135.500 32.166 C 135.562 32.266,135.622 32.072,135.635 31.734 C 135.661 31.036,135.687 30.994,136.110 30.926 C 136.313 30.893,136.403 30.756,136.377 30.522 C 136.341 30.198,136.445 30.136,136.958 30.177 C 137.027 30.182,137.127 30.013,137.181 29.802 C 137.235 29.590,137.368 29.436,137.477 29.460 C 137.585 29.483,137.745 29.314,137.833 29.085 C 137.930 28.828,138.122 28.667,138.329 28.667 C 138.556 28.667,138.667 28.557,138.667 28.333 C 138.667 28.016,138.925 27.937,139.925 27.950 C 140.021 27.951,140.110 27.804,140.124 27.624 C 140.158 27.177,140.080 27.201,141.667 27.139 C 142.906 27.090,143.077 27.047,143.034 26.792 C 142.993 26.546,143.118 26.500,143.826 26.500 C 144.447 26.500,144.667 26.563,144.667 26.740 M230.750 27.577 C 230.751 27.929,230.790 27.936,232.782 27.978 C 233.719 27.998,233.808 28.031,233.750 28.333 C 233.694 28.626,233.776 28.667,234.426 28.667 C 234.833 28.667,235.176 28.742,235.188 28.833 C 235.199 28.925,235.218 29.086,235.229 29.191 C 235.241 29.295,235.548 29.412,235.912 29.449 C 236.543 29.514,236.898 29.760,236.737 30.022 C 236.695 30.088,236.832 30.167,237.039 30.196 C 237.288 30.232,237.417 30.364,237.417 30.583 C 237.417 30.797,237.545 30.935,237.775 30.968 C 237.972 30.996,238.171 31.165,238.217 31.343 C 238.264 31.521,238.422 31.667,238.568 31.667 C 238.803 31.667,238.922 31.976,238.847 32.393 C 238.833 32.471,238.899 32.628,238.993 32.741 C 239.087 32.855,239.108 33.009,239.040 33.084 C 238.972 33.158,239.046 33.174,239.203 33.117 C 239.558 32.990,239.642 33.119,239.692 33.871 C 239.718 34.253,239.804 34.437,239.933 34.387 C 240.253 34.265,240.317 34.523,240.348 36.058 C 240.375 37.439,240.394 37.509,240.780 37.606 C 241.335 37.745,241.307 39.249,240.750 39.251 C 240.387 39.252,240.392 39.224,240.354 41.522 C 240.336 42.658,240.296 42.804,239.990 42.884 C 239.801 42.934,239.660 43.074,239.676 43.195 C 239.762 43.830,239.647 44.333,239.417 44.333 C 239.279 44.333,239.185 44.427,239.208 44.542 C 239.231 44.656,239.157 44.732,239.044 44.709 C 238.930 44.686,238.848 44.799,238.862 44.959 C 238.916 45.608,238.823 45.833,238.500 45.833 C 238.317 45.833,238.176 45.890,238.186 45.958 C 238.264 46.448,238.131 46.667,237.755 46.667 C 237.480 46.667,237.372 46.741,237.429 46.890 C 237.526 47.141,237.090 47.575,236.875 47.443 C 236.799 47.395,236.724 47.510,236.710 47.697 C 236.678 48.119,236.676 48.121,236.167 48.192 C 235.938 48.224,235.656 48.362,235.541 48.500 C 235.363 48.714,235.349 48.704,235.445 48.431 C 235.522 48.210,235.496 48.149,235.362 48.232 C 235.254 48.299,235.167 48.456,235.167 48.582 C 235.167 48.707,234.998 48.834,234.792 48.863 C 234.522 48.902,234.422 49.022,234.437 49.292 C 234.455 49.643,234.391 49.667,233.395 49.667 C 232.444 49.667,232.333 49.702,232.333 50.000 C 232.333 50.315,232.222 50.333,230.266 50.333 C 228.280 50.333,228.201 50.320,228.285 50.000 C 228.336 49.806,228.290 49.667,228.176 49.667 C 228.068 49.667,228.033 49.760,228.098 49.875 C 228.192 50.042,228.171 50.042,227.991 49.875 C 227.868 49.760,227.439 49.667,227.038 49.667 C 226.316 49.667,225.837 49.407,225.947 49.074 C 225.979 48.979,225.729 48.883,225.392 48.861 C 224.700 48.814,224.455 48.707,224.579 48.506 C 224.626 48.431,224.491 48.325,224.279 48.272 C 224.068 48.219,223.793 47.986,223.669 47.754 C 223.545 47.523,223.339 47.333,223.212 47.333 C 223.085 47.333,223.027 47.258,223.083 47.167 C 223.140 47.075,223.102 47.000,223.000 47.000 C 222.898 47.000,222.867 46.913,222.933 46.808 C 223.004 46.692,222.979 46.660,222.869 46.728 C 222.659 46.858,221.878 46.094,221.658 45.542 C 221.576 45.335,221.394 45.167,221.254 45.167 C 221.093 45.167,220.993 45.000,220.981 44.708 C 220.943 43.819,220.913 43.750,220.542 43.697 C 220.180 43.645,220.167 43.581,220.167 41.916 C 220.167 40.336,220.138 40.180,219.833 40.083 C 219.554 39.995,219.500 39.831,219.500 39.077 C 219.500 38.375,219.551 38.197,219.733 38.267 C 219.861 38.316,220.023 38.264,220.092 38.152 C 220.178 38.013,220.149 37.991,220.000 38.083 C 219.841 38.182,219.822 38.155,219.930 37.984 C 220.126 37.675,220.122 37.710,220.146 36.095 C 220.165 34.778,220.190 34.686,220.536 34.637 C 220.817 34.596,220.912 34.463,220.931 34.083 C 220.975 33.219,220.994 33.167,221.259 33.167 C 221.401 33.167,221.594 32.946,221.688 32.677 C 221.800 32.355,221.941 32.218,222.098 32.279 C 222.260 32.341,222.306 32.290,222.241 32.119 C 222.187 31.980,222.224 31.818,222.322 31.757 C 222.420 31.697,222.500 31.501,222.500 31.323 C 222.500 31.111,222.614 31.000,222.833 31.000 C 223.078 31.000,223.167 30.889,223.167 30.583 C 223.167 30.250,223.250 30.167,223.583 30.167 C 223.889 30.167,224.000 30.078,224.000 29.833 C 224.000 29.576,224.111 29.500,224.488 29.500 C 225.002 29.500,225.569 29.080,225.408 28.820 C 225.356 28.736,225.528 28.667,225.790 28.667 C 226.052 28.667,226.368 28.573,226.491 28.458 C 226.671 28.292,226.692 28.292,226.598 28.458 C 226.533 28.574,226.568 28.667,226.676 28.667 C 226.790 28.667,226.836 28.527,226.785 28.333 C 226.703 28.021,228.082 27.830,229.292 27.988 C 229.406 28.002,229.500 27.932,229.500 27.831 C 229.500 27.730,229.587 27.701,229.692 27.766 C 229.812 27.840,229.840 27.812,229.766 27.692 C 229.573 27.380,229.832 27.144,230.307 27.199 C 230.619 27.235,230.750 27.347,230.750 27.577 M51.570 28.139 C 51.328 28.314,51.306 28.685,51.539 28.655 C 52.694 28.503,53.500 28.680,53.500 29.083 C 53.500 29.415,53.584 29.500,53.911 29.500 C 54.214 29.500,54.297 29.568,54.224 29.757 C 54.170 29.898,54.191 30.002,54.271 29.989 C 54.680 29.919,55.137 30.220,55.079 30.521 C 55.045 30.697,55.077 30.805,55.150 30.760 C 55.326 30.651,56.005 31.439,55.861 31.585 C 55.800 31.647,55.862 31.682,56.000 31.663 C 56.500 31.592,56.646 31.673,56.585 31.990 C 56.545 32.200,56.597 32.285,56.735 32.233 C 57.018 32.124,57.395 32.599,57.275 32.913 C 57.222 33.050,57.232 33.155,57.298 33.145 C 57.816 33.068,58.000 33.201,58.000 33.653 C 58.000 34.260,58.158 34.692,58.339 34.580 C 58.584 34.428,58.660 34.766,58.695 36.150 C 58.717 37.012,58.793 37.486,58.905 37.448 C 59.323 37.309,59.500 37.840,59.500 39.238 C 59.500 40.321,59.446 40.667,59.277 40.667 C 58.941 40.667,58.667 41.415,58.667 42.332 C 58.667 43.043,58.626 43.140,58.350 43.087 C 58.090 43.036,58.033 43.125,58.033 43.586 C 58.033 44.116,57.635 44.917,57.372 44.917 C 57.249 44.917,57.221 45.011,57.186 45.542 C 57.174 45.716,57.032 45.833,56.833 45.833 C 56.589 45.833,56.500 45.944,56.500 46.250 C 56.500 46.622,56.344 46.747,55.958 46.686 C 55.841 46.668,55.769 46.927,55.814 47.208 C 55.824 47.277,55.646 47.333,55.417 47.333 C 55.083 47.333,55.000 47.417,55.000 47.750 C 55.000 48.083,54.917 48.167,54.583 48.167 C 54.354 48.167,54.176 48.223,54.186 48.292 C 54.254 48.720,54.114 48.833,53.518 48.833 C 52.965 48.833,52.854 48.895,52.765 49.250 C 52.664 49.651,52.610 49.667,51.332 49.667 C 50.183 49.667,49.975 49.712,49.795 50.000 C 49.622 50.277,49.406 50.333,48.528 50.333 C 47.609 50.333,47.457 50.289,47.382 50.000 C 47.307 49.714,47.154 49.667,46.302 49.667 C 45.357 49.667,44.877 49.466,44.905 49.083 C 44.911 48.992,44.666 48.904,44.359 48.889 C 44.005 48.871,43.712 48.734,43.558 48.514 C 43.391 48.276,43.133 48.167,42.741 48.167 C 42.240 48.167,42.167 48.114,42.167 47.750 C 42.167 47.444,42.078 47.333,41.833 47.333 C 41.611 47.333,41.500 47.222,41.500 47.000 C 41.500 46.756,41.389 46.667,41.083 46.667 C 40.675 46.667,40.591 46.463,40.621 45.548 C 40.624 45.437,40.545 45.362,40.444 45.382 C 40.344 45.401,40.128 45.154,39.964 44.833 C 39.801 44.512,39.611 44.270,39.542 44.295 C 39.473 44.320,39.393 44.057,39.364 43.712 C 39.335 43.366,39.230 43.008,39.131 42.917 C 39.005 42.800,38.993 42.825,39.091 43.000 C 39.207 43.207,39.187 43.215,38.975 43.043 C 38.834 42.929,38.669 42.887,38.606 42.949 C 38.544 43.011,38.514 41.360,38.538 39.281 C 38.563 37.201,38.641 35.501,38.712 35.503 C 38.858 35.508,39.303 35.125,39.298 35.000 C 39.263 34.247,39.368 33.833,39.593 33.833 C 39.736 33.833,39.807 33.758,39.750 33.667 C 39.693 33.575,39.710 33.500,39.787 33.500 C 39.864 33.500,39.943 33.294,39.962 33.042 C 39.981 32.790,40.148 32.480,40.332 32.355 C 40.516 32.229,40.667 32.031,40.667 31.914 C 40.667 31.798,40.854 31.656,41.082 31.598 C 41.311 31.541,41.490 31.439,41.479 31.372 C 41.425 31.020,41.526 30.854,41.743 30.937 C 41.905 30.999,42.022 30.887,42.094 30.598 C 42.154 30.361,42.298 30.167,42.414 30.167 C 42.531 30.167,42.729 30.019,42.855 29.839 C 43.047 29.564,43.424 29.428,44.218 29.347 C 44.292 29.340,44.307 29.258,44.250 29.167 C 44.193 29.075,44.231 29.000,44.333 29.000 C 44.436 29.000,44.473 28.925,44.417 28.833 C 44.359 28.740,44.502 28.657,44.740 28.646 C 44.975 28.634,45.242 28.606,45.333 28.583 C 45.425 28.560,45.612 28.532,45.750 28.521 C 45.887 28.509,45.991 28.444,45.980 28.375 C 45.969 28.306,45.969 28.191,45.980 28.119 C 45.991 28.047,47.288 27.997,48.862 28.008 C 50.436 28.019,51.655 28.078,51.570 28.139 " stroke="none" fill="#cccccc" fill-rule="evenodd"></path><path id="path1" d="M256.106 5.207 C 255.974 5.696,255.974 12.135,256.105 12.625 C 256.204 12.996,256.239 13.000,259.103 13.000 L 262.000 13.000 262.000 31.329 L 262.000 49.659 259.042 49.704 L 256.083 49.750 256.038 53.375 L 255.993 57.000 266.497 57.000 L 277.000 57.000 277.000 53.333 L 277.000 49.667 273.667 49.667 L 270.333 49.667 270.333 40.667 L 270.333 31.667 271.000 31.667 C 271.548 31.667,271.667 31.609,271.667 31.345 C 271.667 31.138,271.801 31.004,272.042 30.970 C 272.283 30.936,272.436 30.783,272.470 30.542 C 272.515 30.224,272.625 30.167,273.194 30.167 C 273.718 30.167,273.883 30.096,273.949 29.843 C 273.996 29.665,274.195 29.496,274.392 29.468 C 274.616 29.436,274.770 29.276,274.803 29.042 C 274.849 28.717,274.956 28.667,275.595 28.667 C 276.222 28.667,276.333 28.617,276.333 28.333 C 276.333 28.034,276.444 28.000,277.417 28.000 C 278.461 28.000,278.500 27.985,278.500 27.583 C 278.500 27.179,278.533 27.167,279.667 27.167 C 280.800 27.167,280.833 27.179,280.833 27.583 C 280.833 27.960,280.899 28.000,281.516 28.000 C 282.058 28.000,282.216 28.068,282.285 28.333 C 282.333 28.518,282.512 28.667,282.686 28.667 C 282.942 28.667,283.000 28.792,283.000 29.349 C 283.000 29.891,283.068 30.049,283.333 30.118 C 283.663 30.205,283.667 30.346,283.667 43.603 L 283.667 57.000 290.833 57.000 L 298.000 57.000 298.000 53.333 L 298.000 49.667 295.000 49.667 L 292.000 49.667 292.000 37.829 L 292.000 25.992 291.583 25.833 C 291.202 25.688,291.167 25.590,291.167 24.655 C 291.167 23.776,291.121 23.623,290.833 23.548 C 290.649 23.500,290.500 23.321,290.500 23.147 C 290.500 22.924,290.380 22.833,290.083 22.833 C 289.750 22.833,289.667 22.750,289.667 22.417 C 289.667 22.111,289.578 22.000,289.333 22.000 C 289.111 22.000,289.000 21.889,289.000 21.667 C 289.000 21.425,288.889 21.333,288.595 21.333 C 288.302 21.333,288.175 21.230,288.137 20.958 C 288.089 20.622,287.977 20.578,287.042 20.534 C 286.137 20.491,286.000 20.441,286.000 20.159 C 286.000 19.643,277.183 19.651,277.048 20.167 C 276.978 20.436,276.821 20.500,276.231 20.500 C 275.562 20.500,275.500 20.536,275.500 20.917 C 275.500 21.318,275.461 21.333,274.417 21.333 C 273.444 21.333,273.333 21.368,273.333 21.667 C 273.333 21.911,273.222 22.000,272.917 22.000 C 272.583 22.000,272.500 22.083,272.500 22.417 C 272.500 22.799,272.439 22.833,271.750 22.833 C 271.111 22.833,271.000 22.883,271.000 23.167 C 271.000 23.388,270.889 23.500,270.668 23.500 C 270.341 23.500,270.335 23.361,270.293 14.208 L 270.250 4.917 263.228 4.873 L 256.206 4.830 256.106 5.207 M387.718 8.989 C 387.667 9.183,387.491 9.333,387.314 9.333 C 387.117 9.333,387.000 9.451,387.000 9.649 C 387.000 9.846,386.844 10.003,386.583 10.068 C 386.314 10.136,386.167 10.290,386.167 10.503 C 386.167 10.722,386.054 10.833,385.833 10.833 C 385.615 10.833,385.500 10.944,385.500 11.155 C 385.500 11.362,385.366 11.496,385.125 11.530 C 384.884 11.564,384.731 11.717,384.697 11.958 C 384.663 12.199,384.529 12.333,384.322 12.333 C 384.115 12.333,384.000 12.448,384.000 12.655 C 384.000 12.862,383.866 12.996,383.625 13.030 C 383.384 13.064,383.231 13.217,383.197 13.458 C 383.163 13.699,383.029 13.833,382.822 13.833 C 382.611 13.833,382.500 13.948,382.500 14.167 C 382.500 14.411,382.389 14.500,382.083 14.500 C 381.750 14.500,381.667 14.583,381.667 14.917 C 381.667 15.222,381.578 15.333,381.333 15.333 C 381.014 15.333,381.000 15.444,381.000 17.917 L 381.000 20.500 378.750 20.500 L 376.500 20.500 376.500 24.250 L 376.500 28.000 378.750 28.000 L 381.000 28.000 381.000 39.516 C 381.000 50.891,381.004 51.032,381.333 51.118 C 381.633 51.197,381.667 51.346,381.667 52.603 C 381.667 53.982,381.672 54.000,382.083 54.000 C 382.466 54.000,382.500 54.061,382.500 54.750 C 382.500 55.380,382.552 55.500,382.822 55.500 C 383.029 55.500,383.163 55.634,383.197 55.875 C 383.241 56.187,383.369 56.259,383.958 56.301 C 384.531 56.343,384.667 56.415,384.667 56.676 C 384.667 56.949,384.785 57.000,385.417 57.000 C 386.106 57.000,386.167 57.034,386.167 57.417 L 386.167 57.833 390.250 57.833 L 394.333 57.833 394.333 57.417 C 394.333 57.034,394.394 57.000,395.086 57.000 L 395.839 57.000 395.795 52.958 L 395.750 48.917 395.167 48.917 C 394.689 48.917,394.574 48.984,394.530 49.292 C 394.478 49.660,394.436 49.667,392.155 49.667 L 389.833 49.667 389.833 47.417 C 389.833 45.278,389.817 45.167,389.500 45.167 C 389.171 45.167,389.167 45.056,389.167 36.583 L 389.167 28.000 392.500 28.000 L 395.833 28.000 395.833 24.250 L 395.833 20.500 392.502 20.500 L 389.171 20.500 389.127 14.625 L 389.083 8.750 388.446 8.698 C 387.917 8.654,387.792 8.704,387.718 8.989 M313.715 20.167 C 313.639 20.456,313.488 20.500,312.575 20.500 C 311.611 20.500,311.519 20.531,311.470 20.875 C 311.426 21.185,311.297 21.259,310.725 21.300 C 310.206 21.338,310.013 21.431,309.949 21.675 C 309.883 21.930,309.718 22.000,309.182 22.000 C 308.566 22.000,308.500 22.040,308.500 22.417 C 308.500 22.750,308.417 22.833,308.083 22.833 C 307.782 22.833,307.667 22.923,307.667 23.157 C 307.667 23.419,307.531 23.491,306.958 23.532 C 306.369 23.575,306.241 23.647,306.197 23.958 C 306.163 24.199,306.029 24.333,305.822 24.333 C 305.615 24.333,305.500 24.448,305.500 24.655 C 305.500 24.862,305.366 24.996,305.125 25.030 C 304.884 25.064,304.731 25.217,304.697 25.458 C 304.663 25.699,304.529 25.833,304.322 25.833 C 304.058 25.833,304.000 25.952,304.000 26.488 C 304.000 27.041,303.941 27.152,303.625 27.197 C 303.384 27.231,303.231 27.384,303.197 27.625 C 303.163 27.866,303.029 28.000,302.822 28.000 C 302.552 28.000,302.500 28.120,302.500 28.750 C 302.500 29.439,302.466 29.500,302.083 29.500 C 301.701 29.500,301.667 29.561,301.667 30.250 C 301.667 30.889,301.617 31.000,301.333 31.000 C 301.035 31.000,301.000 31.111,301.000 32.072 C 301.000 33.056,300.969 33.148,300.625 33.197 L 300.250 33.250 300.250 39.083 L 300.250 44.917 300.625 45.081 C 300.952 45.225,301.000 45.369,301.000 46.222 C 301.000 47.049,301.050 47.211,301.325 47.283 C 301.569 47.347,301.662 47.539,301.700 48.059 C 301.741 48.630,301.815 48.759,302.125 48.803 C 302.443 48.848,302.500 48.959,302.500 49.527 C 302.500 50.051,302.571 50.216,302.824 50.283 C 303.002 50.329,303.171 50.528,303.199 50.725 C 303.231 50.949,303.390 51.103,303.625 51.137 C 303.866 51.171,304.000 51.305,304.000 51.512 C 304.000 51.718,304.115 51.833,304.322 51.833 C 304.529 51.833,304.663 51.967,304.697 52.208 C 304.731 52.449,304.884 52.602,305.125 52.637 C 305.366 52.671,305.500 52.805,305.500 53.012 C 305.500 53.222,305.615 53.333,305.833 53.333 C 306.056 53.333,306.167 53.444,306.167 53.667 C 306.167 53.911,306.278 54.000,306.583 54.000 C 306.917 54.000,307.000 54.083,307.000 54.417 C 307.000 54.722,307.089 54.833,307.333 54.833 C 307.556 54.833,307.667 54.944,307.667 55.167 C 307.667 55.451,307.778 55.500,308.417 55.500 C 309.106 55.500,309.167 55.534,309.167 55.917 C 309.167 56.299,309.228 56.333,309.917 56.333 C 310.556 56.333,310.667 56.383,310.667 56.667 C 310.667 56.950,310.778 57.000,311.405 57.000 C 312.044 57.000,312.151 57.051,312.197 57.375 C 312.248 57.734,312.328 57.752,314.024 57.797 C 315.626 57.840,315.806 57.876,315.883 58.172 C 316.017 58.683,322.667 58.684,322.667 58.172 C 322.667 57.870,322.804 57.841,324.458 57.797 C 326.173 57.752,326.252 57.734,326.303 57.375 C 326.349 57.051,326.456 57.000,327.095 57.000 C 327.722 57.000,327.833 56.950,327.833 56.667 C 327.833 56.383,327.944 56.333,328.583 56.333 C 329.272 56.333,329.333 56.299,329.333 55.917 C 329.333 55.534,329.394 55.500,330.083 55.500 C 330.713 55.500,330.833 55.448,330.833 55.178 C 330.833 54.971,330.967 54.837,331.208 54.803 C 331.449 54.769,331.602 54.616,331.637 54.375 C 331.671 54.134,331.805 54.000,332.012 54.000 C 332.222 54.000,332.333 53.885,332.333 53.667 C 332.333 53.422,332.444 53.333,332.750 53.333 C 333.056 53.333,333.167 53.244,333.167 53.000 C 333.167 52.778,333.278 52.667,333.500 52.667 C 333.744 52.667,333.833 52.556,333.833 52.250 C 333.833 51.944,333.922 51.833,334.167 51.833 C 334.385 51.833,334.500 51.722,334.500 51.512 C 334.500 51.305,334.634 51.171,334.875 51.137 C 335.116 51.102,335.269 50.949,335.303 50.708 C 335.337 50.467,335.471 50.333,335.678 50.333 C 335.948 50.333,336.000 50.213,336.000 49.583 C 336.000 48.894,336.034 48.833,336.417 48.833 C 336.799 48.833,336.833 48.772,336.833 48.083 C 336.833 47.444,336.883 47.333,337.167 47.333 C 337.465 47.333,337.500 47.222,337.500 46.262 C 337.500 45.277,337.531 45.186,337.875 45.137 L 338.250 45.083 338.250 38.833 L 338.250 32.583 337.875 32.530 C 337.531 32.481,337.500 32.389,337.500 31.416 C 337.500 30.502,337.454 30.341,337.167 30.250 C 336.918 30.171,336.833 29.998,336.833 29.569 C 336.833 29.116,336.744 28.952,336.417 28.803 C 336.188 28.699,336.000 28.475,336.000 28.307 C 336.000 28.114,335.879 28.000,335.676 28.000 C 335.415 28.000,335.343 27.864,335.301 27.292 C 335.259 26.703,335.187 26.574,334.875 26.530 C 334.639 26.497,334.500 26.361,334.500 26.166 C 334.500 25.996,334.350 25.808,334.167 25.750 C 333.983 25.692,333.833 25.499,333.833 25.322 C 333.833 25.118,333.719 25.000,333.519 25.000 C 333.346 25.000,333.167 24.851,333.118 24.667 C 333.067 24.472,332.891 24.333,332.694 24.333 C 332.471 24.333,332.338 24.206,332.303 23.958 C 332.259 23.647,332.131 23.575,331.542 23.532 C 330.969 23.491,330.833 23.419,330.833 23.157 C 330.833 22.951,330.719 22.833,330.518 22.833 C 330.321 22.833,330.164 22.677,330.098 22.417 C 330.009 22.062,329.898 22.000,329.350 22.000 C 328.846 22.000,328.687 21.927,328.618 21.667 C 328.550 21.404,328.391 21.333,327.867 21.333 C 327.298 21.333,327.188 21.274,327.098 20.917 C 327.000 20.527,326.925 20.500,325.933 20.500 C 325.012 20.500,324.861 20.456,324.785 20.167 C 324.700 19.842,324.558 19.833,319.250 19.833 C 313.942 19.833,313.800 19.842,313.715 20.167 M354.000 20.167 C 354.000 20.480,353.889 20.500,352.167 20.500 L 350.333 20.500 350.333 20.917 C 350.333 21.299,350.272 21.333,349.583 21.333 C 348.944 21.333,348.833 21.383,348.833 21.667 C 348.833 21.951,348.722 22.000,348.083 22.000 C 347.394 22.000,347.333 22.034,347.333 22.417 C 347.333 22.750,347.250 22.833,346.917 22.833 C 346.611 22.833,346.500 22.922,346.500 23.167 C 346.500 23.389,346.389 23.500,346.167 23.500 C 345.946 23.500,345.833 23.611,345.833 23.830 C 345.833 24.043,345.686 24.197,345.417 24.265 C 345.156 24.330,345.000 24.487,345.000 24.685 C 345.000 24.889,344.883 25.000,344.667 25.000 C 344.383 25.000,344.333 25.111,344.333 25.738 C 344.333 26.377,344.283 26.484,343.958 26.530 C 343.621 26.578,343.578 26.689,343.533 27.643 C 343.491 28.529,343.430 28.716,343.158 28.787 C 342.649 28.920,342.657 33.167,343.167 33.167 C 343.470 33.167,343.500 33.278,343.500 34.403 C 343.500 35.856,343.591 36.167,344.018 36.167 C 344.276 36.167,344.333 36.291,344.333 36.849 C 344.333 37.391,344.402 37.549,344.667 37.618 C 344.851 37.667,345.000 37.846,345.000 38.019 C 345.000 38.243,345.120 38.333,345.417 38.333 C 345.750 38.333,345.833 38.417,345.833 38.750 C 345.833 39.051,345.923 39.167,346.155 39.167 C 346.333 39.167,346.525 39.317,346.583 39.500 C 346.665 39.758,346.836 39.833,347.333 39.833 C 347.874 39.833,347.985 39.893,348.030 40.208 C 348.074 40.520,348.203 40.592,348.792 40.635 C 349.364 40.676,349.500 40.748,349.500 41.010 C 349.500 41.299,349.623 41.333,350.667 41.333 C 351.800 41.333,351.833 41.345,351.833 41.750 C 351.833 42.152,351.872 42.167,352.917 42.167 C 353.889 42.167,354.000 42.201,354.000 42.500 C 354.000 42.814,354.111 42.833,355.917 42.833 C 357.686 42.833,357.833 42.858,357.833 43.149 C 357.833 43.591,358.140 43.667,359.930 43.667 C 361.389 43.667,361.500 43.690,361.500 44.000 C 361.500 44.284,361.611 44.333,362.250 44.333 C 362.875 44.333,363.000 44.386,363.000 44.649 C 363.000 45.008,363.310 45.167,364.014 45.167 L 364.500 45.167 364.500 46.667 C 364.500 48.056,364.475 48.167,364.167 48.167 C 363.951 48.167,363.833 48.278,363.833 48.482 C 363.833 48.679,363.677 48.836,363.417 48.902 C 363.148 48.969,363.000 49.123,363.000 49.337 C 363.000 49.612,362.887 49.667,362.318 49.667 C 361.776 49.667,361.618 49.735,361.548 50.000 C 361.465 50.318,361.321 50.333,358.500 50.333 C 355.679 50.333,355.535 50.318,355.452 50.000 C 355.382 49.735,355.224 49.667,354.682 49.667 C 354.124 49.667,354.000 49.609,354.000 49.351 C 354.000 48.992,353.690 48.833,352.986 48.833 C 352.611 48.833,352.500 48.757,352.500 48.500 C 352.500 48.284,352.389 48.167,352.186 48.167 C 351.941 48.167,351.846 48.001,351.759 47.417 C 351.670 46.824,351.578 46.667,351.323 46.667 C 351.027 46.667,351.000 46.540,351.000 45.167 L 351.000 43.667 346.917 43.667 L 342.833 43.667 342.833 50.333 L 342.833 57.000 346.917 57.000 C 350.889 57.000,351.000 56.991,351.000 56.667 C 351.000 56.422,351.111 56.333,351.417 56.333 C 351.722 56.333,351.833 56.422,351.833 56.667 C 351.833 56.965,351.944 57.000,352.905 57.000 C 353.890 57.000,353.981 57.031,354.030 57.375 L 354.083 57.750 359.250 57.750 L 364.417 57.750 364.470 57.375 C 364.519 57.031,364.610 57.000,365.595 57.000 C 366.556 57.000,366.667 56.965,366.667 56.667 C 366.667 56.383,366.778 56.333,367.417 56.333 C 368.106 56.333,368.167 56.299,368.167 55.917 C 368.167 55.534,368.228 55.500,368.917 55.500 C 369.556 55.500,369.667 55.451,369.667 55.167 C 369.667 54.922,369.778 54.833,370.083 54.833 C 370.417 54.833,370.500 54.750,370.500 54.417 C 370.500 54.111,370.589 54.000,370.833 54.000 C 371.052 54.000,371.167 53.889,371.167 53.678 C 371.167 53.471,371.301 53.337,371.542 53.303 C 371.853 53.259,371.925 53.131,371.968 52.542 C 372.009 51.969,372.081 51.833,372.343 51.833 C 372.615 51.833,372.667 51.715,372.667 51.095 C 372.667 50.456,372.717 50.349,373.042 50.303 C 373.416 50.250,373.417 50.243,373.464 46.583 C 373.516 42.512,373.480 42.167,372.997 42.167 C 372.717 42.167,372.667 42.053,372.667 41.417 C 372.667 40.778,372.617 40.667,372.333 40.667 C 372.112 40.667,372.000 40.556,372.000 40.337 C 372.000 40.123,371.852 39.969,371.583 39.902 C 371.228 39.813,371.167 39.701,371.167 39.149 C 371.167 38.624,371.107 38.500,370.851 38.500 C 370.654 38.500,370.497 38.344,370.432 38.083 C 370.342 37.726,370.232 37.667,369.663 37.667 C 369.111 37.667,369.000 37.611,369.000 37.333 C 369.000 37.091,368.889 37.000,368.595 37.000 C 368.302 37.000,368.175 36.896,368.137 36.625 C 368.089 36.288,367.977 36.245,367.042 36.200 C 366.137 36.157,366.000 36.108,366.000 35.825 C 366.000 35.527,365.877 35.500,364.512 35.500 C 363.095 35.500,363.021 35.482,362.970 35.125 C 362.918 34.760,362.855 34.749,360.708 34.703 C 358.638 34.660,358.500 34.637,358.500 34.328 C 358.500 34.022,358.380 34.000,356.685 34.000 C 354.887 34.000,354.868 33.996,354.765 33.583 C 354.667 33.193,354.593 33.167,353.580 33.167 C 352.611 33.167,352.500 33.132,352.500 32.833 C 352.500 32.615,352.389 32.500,352.178 32.500 C 351.971 32.500,351.837 32.366,351.803 32.125 C 351.769 31.884,351.616 31.731,351.375 31.697 C 350.856 31.623,350.800 30.167,351.316 30.167 C 351.675 30.167,351.833 29.856,351.833 29.153 C 351.833 28.698,351.876 28.667,352.489 28.667 C 352.998 28.667,353.168 28.592,353.250 28.333 C 353.332 28.075,353.502 28.000,354.008 28.000 C 354.565 28.000,354.676 27.939,354.765 27.583 C 354.921 26.962,358.442 26.923,358.530 27.542 C 358.578 27.882,358.686 27.921,359.708 27.966 C 360.697 28.009,360.833 28.055,360.833 28.341 C 360.833 28.556,360.947 28.667,361.167 28.667 C 361.388 28.667,361.500 28.778,361.500 28.997 C 361.500 29.210,361.648 29.364,361.917 29.432 C 362.177 29.497,362.333 29.654,362.333 29.851 C 362.333 30.056,362.451 30.167,362.667 30.167 C 362.882 30.167,363.000 30.278,363.000 30.481 C 363.000 30.653,363.140 30.831,363.311 30.876 C 363.573 30.944,363.634 31.169,363.701 32.327 C 363.754 33.254,363.856 33.745,364.015 33.846 C 364.307 34.031,371.504 34.045,371.794 33.861 C 371.958 33.757,371.994 32.303,371.960 27.156 L 371.917 20.583 367.875 20.539 L 363.833 20.494 363.833 20.914 C 363.833 21.472,363.154 21.505,362.915 20.958 C 362.758 20.601,362.647 20.581,360.625 20.537 C 358.638 20.493,358.500 20.469,358.500 20.162 C 358.500 19.851,358.378 19.833,356.250 19.833 C 354.111 19.833,354.000 19.850,354.000 20.167 M321.882 28.333 C 321.958 28.624,322.109 28.667,323.068 28.667 C 324.129 28.667,324.167 28.681,324.167 29.083 C 324.167 29.389,324.256 29.500,324.500 29.500 C 324.722 29.500,324.833 29.611,324.833 29.833 C 324.833 30.078,324.944 30.167,325.250 30.167 C 325.551 30.167,325.667 30.256,325.667 30.489 C 325.667 30.666,325.809 30.856,325.982 30.911 C 326.155 30.966,326.336 31.159,326.383 31.339 C 326.434 31.533,326.611 31.667,326.818 31.667 C 327.061 31.667,327.167 31.773,327.167 32.016 C 327.167 32.224,327.301 32.400,327.500 32.452 C 327.684 32.500,327.833 32.679,327.833 32.853 C 327.833 33.076,327.953 33.167,328.250 33.167 C 328.633 33.167,328.667 33.228,328.667 33.917 C 328.667 34.551,328.717 34.667,328.994 34.667 C 329.297 34.667,329.326 34.804,329.369 36.458 C 329.415 38.185,329.431 38.252,329.800 38.304 C 330.369 38.385,330.286 39.888,329.708 39.970 C 329.354 40.020,329.333 40.098,329.333 41.417 C 329.333 42.664,329.298 42.822,329.000 42.917 C 328.743 42.998,328.667 43.169,328.667 43.660 C 328.667 44.201,328.604 44.313,328.250 44.402 C 327.893 44.491,327.833 44.601,327.833 45.170 C 327.833 45.722,327.778 45.833,327.500 45.833 C 327.256 45.833,327.167 45.944,327.167 46.250 C 327.167 46.583,327.083 46.667,326.750 46.667 C 326.444 46.667,326.333 46.756,326.333 47.000 C 326.333 47.222,326.222 47.333,326.000 47.333 C 325.756 47.333,325.667 47.444,325.667 47.750 C 325.667 48.133,325.606 48.167,324.917 48.167 C 324.278 48.167,324.167 48.216,324.167 48.500 C 324.167 48.744,324.056 48.833,323.750 48.833 C 323.417 48.833,323.333 48.917,323.333 49.250 C 323.333 49.662,323.318 49.667,321.901 49.667 C 320.609 49.667,320.460 49.699,320.382 50.000 C 320.306 50.289,320.154 50.333,319.231 50.333 C 318.278 50.333,318.167 50.299,318.167 50.000 C 318.167 49.699,318.056 49.667,317.012 49.667 C 315.941 49.667,315.853 49.639,315.803 49.292 C 315.759 48.980,315.631 48.908,315.042 48.865 C 314.469 48.824,314.333 48.752,314.333 48.490 C 314.333 48.218,314.215 48.167,313.583 48.167 C 312.894 48.167,312.833 48.133,312.833 47.750 C 312.833 47.444,312.744 47.333,312.500 47.333 C 312.278 47.333,312.167 47.222,312.167 47.000 C 312.167 46.756,312.056 46.667,311.750 46.667 C 311.417 46.667,311.333 46.583,311.333 46.250 C 311.333 45.949,311.244 45.833,311.010 45.833 C 310.748 45.833,310.676 45.698,310.635 45.125 C 310.592 44.536,310.520 44.408,310.208 44.363 C 309.890 44.318,309.833 44.208,309.833 43.639 C 309.833 43.109,309.764 42.951,309.500 42.882 C 309.180 42.798,309.167 42.654,309.167 39.158 C 309.167 35.669,309.180 35.518,309.500 35.417 C 309.759 35.334,309.833 35.164,309.833 34.651 C 309.833 34.101,309.902 33.965,310.250 33.833 C 310.582 33.707,310.667 33.559,310.667 33.107 C 310.667 32.679,310.749 32.517,311.000 32.452 C 311.199 32.400,311.333 32.224,311.333 32.016 C 311.333 31.773,311.439 31.667,311.682 31.667 C 311.889 31.667,312.066 31.533,312.117 31.339 C 312.164 31.159,312.345 30.966,312.518 30.911 C 312.691 30.856,312.833 30.666,312.833 30.489 C 312.833 30.256,312.949 30.167,313.250 30.167 C 313.556 30.167,313.667 30.078,313.667 29.833 C 313.667 29.611,313.778 29.500,314.000 29.500 C 314.244 29.500,314.333 29.389,314.333 29.083 C 314.333 28.681,314.371 28.667,315.432 28.667 C 316.391 28.667,316.542 28.624,316.618 28.333 C 316.701 28.018,316.846 28.000,319.250 28.000 C 321.654 28.000,321.799 28.018,321.882 28.333 " stroke="none" fill="#dc4444" fill-rule="evenodd"></path><path id="path2" d="M82.568 24.583 C 82.568 26.142,82.593 26.802,82.624 26.050 C 82.655 25.298,82.655 24.023,82.624 23.217 C 82.594 22.410,82.568 23.025,82.568 24.583 M150.926 30.016 C 150.978 30.099,151.123 30.167,151.249 30.167 C 151.375 30.167,151.525 30.317,151.583 30.500 C 151.642 30.683,151.761 30.833,151.848 30.833 C 152.122 30.833,151.502 30.039,151.159 29.950 C 150.979 29.903,150.875 29.932,150.926 30.016 " stroke="none" fill="#d4a8d0" fill-rule="evenodd"></path><path id="path3" d="M82.568 24.583 C 82.568 26.142,82.593 26.802,82.624 26.050 C 82.655 25.298,82.655 24.023,82.624 23.217 C 82.594 22.410,82.568 23.025,82.568 24.583 M150.926 30.016 C 150.978 30.099,151.123 30.167,151.249 30.167 C 151.375 30.167,151.525 30.317,151.583 30.500 C 151.642 30.683,151.761 30.833,151.848 30.833 C 152.122 30.833,151.502 30.039,151.159 29.950 C 150.979 29.903,150.875 29.932,150.926 30.016 " stroke="none" fill="#d4a8d0" fill-rule="evenodd"></path><path id="path4" d="M82.568 24.583 C 82.568 26.142,82.593 26.802,82.624 26.050 C 82.655 25.298,82.655 24.023,82.624 23.217 C 82.594 22.410,82.568 23.025,82.568 24.583 M150.926 30.016 C 150.978 30.099,151.123 30.167,151.249 30.167 C 151.375 30.167,151.525 30.317,151.583 30.500 C 151.642 30.683,151.761 30.833,151.848 30.833 C 152.122 30.833,151.502 30.039,151.159 29.950 C 150.979 29.903,150.875 29.932,150.926 30.016 " stroke="none" fill="#d4a8d0" fill-rule="evenodd"></path></g></svg>