<svg id="svg" version="1.1" xmlns="http://www.w3.org/2000/svg" xmlns:xlink="http://www.w3.org/1999/xlink" width="400" height="60.30150753768844" viewBox="0, 0, 400,60.30150753768844"><g id="svgg"><path id="path0" d="M3.333 6.833 L 3.333 10.333 6.583 10.333 L 9.833 10.333 9.833 29.083 L 9.833 47.833 6.708 47.853 C 4.990 47.864,3.527 47.864,3.458 47.853 C 3.390 47.842,3.333 49.408,3.333 51.333 L 3.333 54.833 13.083 54.833 L 22.833 54.833 22.833 51.333 L 22.833 47.833 20.083 47.833 L 17.333 47.833 17.333 25.583 L 17.333 3.333 10.333 3.333 L 3.333 3.333 3.333 6.833 M232.944 3.444 C 232.806 3.583,232.796 9.710,232.934 10.070 C 233.022 10.298,233.496 10.333,236.518 10.333 L 240.000 10.333 240.000 16.583 C 240.000 22.028,239.968 22.833,239.750 22.833 C 239.612 22.833,239.500 22.721,239.500 22.583 C 239.500 22.446,239.387 22.333,239.250 22.333 C 239.112 22.333,239.000 22.221,239.000 22.083 C 239.000 21.946,238.887 21.833,238.750 21.833 C 238.612 21.833,238.500 21.721,238.500 21.583 C 238.500 21.446,238.387 21.333,238.250 21.333 C 238.112 21.333,238.000 21.221,238.000 21.083 C 238.000 20.917,237.833 20.833,237.500 20.833 C 237.167 20.833,237.000 20.750,237.000 20.583 C 237.000 20.446,236.896 20.333,236.768 20.333 C 236.640 20.333,236.492 20.221,236.440 20.083 C 236.387 19.946,236.154 19.833,235.922 19.833 C 235.658 19.833,235.500 19.740,235.500 19.583 C 235.500 19.417,235.333 19.333,235.000 19.333 C 234.667 19.333,234.500 19.250,234.500 19.083 C 234.500 18.894,234.296 18.833,233.667 18.833 C 233.037 18.833,232.833 18.772,232.833 18.583 C 232.833 18.389,232.611 18.333,231.833 18.333 C 231.056 18.333,230.833 18.278,230.833 18.083 C 230.833 17.870,230.361 17.833,227.583 17.833 C 224.806 17.833,224.333 17.870,224.333 18.083 C 224.333 18.278,224.111 18.333,223.333 18.333 C 222.556 18.333,222.333 18.389,222.333 18.583 C 222.333 18.769,222.139 18.833,221.583 18.833 C 221.028 18.833,220.833 18.898,220.833 19.083 C 220.833 19.250,220.667 19.333,220.333 19.333 C 220.000 19.333,219.833 19.417,219.833 19.583 C 219.833 19.750,219.667 19.833,219.333 19.833 C 219.000 19.833,218.833 19.917,218.833 20.083 C 218.833 20.221,218.721 20.333,218.583 20.333 C 218.446 20.333,218.333 20.446,218.333 20.583 C 218.333 20.750,218.167 20.833,217.833 20.833 C 217.500 20.833,217.333 20.917,217.333 21.083 C 217.333 21.221,217.221 21.333,217.083 21.333 C 216.946 21.333,216.833 21.446,216.833 21.583 C 216.833 21.721,216.721 21.833,216.583 21.833 C 216.446 21.833,216.333 21.946,216.333 22.083 C 216.333 22.221,216.221 22.333,216.083 22.333 C 215.946 22.333,215.833 22.446,215.833 22.583 C 215.833 22.750,215.667 22.833,215.333 22.833 C 214.889 22.833,214.833 22.889,214.833 23.333 C 214.833 23.667,214.750 23.833,214.583 23.833 C 214.446 23.833,214.333 23.946,214.333 24.083 C 214.333 24.221,214.221 24.333,214.083 24.333 C 213.946 24.333,213.833 24.446,213.833 24.583 C 213.833 24.721,213.721 24.833,213.583 24.833 C 213.446 24.833,213.333 24.946,213.333 25.083 C 213.333 25.221,213.221 25.333,213.083 25.333 C 212.917 25.333,212.833 25.500,212.833 25.833 C 212.833 26.167,212.750 26.333,212.583 26.333 C 212.446 26.333,212.333 26.446,212.333 26.583 C 212.333 26.721,212.221 26.833,212.083 26.833 C 211.917 26.833,211.833 27.000,211.833 27.333 C 211.833 27.667,211.750 27.833,211.583 27.833 C 211.398 27.833,211.333 28.028,211.333 28.583 C 211.333 29.139,211.269 29.333,211.083 29.333 C 210.898 29.333,210.833 29.528,210.833 30.083 C 210.833 30.639,210.769 30.833,210.583 30.833 C 210.383 30.833,210.333 31.083,210.333 32.083 C 210.333 33.083,210.283 33.333,210.083 33.333 C 209.868 33.333,209.833 33.889,209.833 37.333 C 209.833 40.778,209.868 41.333,210.083 41.333 C 210.278 41.333,210.333 41.556,210.333 42.333 C 210.333 43.111,210.389 43.333,210.583 43.333 C 210.778 43.333,210.833 43.556,210.833 44.333 C 210.833 45.111,210.889 45.333,211.083 45.333 C 211.250 45.333,211.333 45.500,211.333 45.833 C 211.333 46.167,211.417 46.333,211.583 46.333 C 211.750 46.333,211.833 46.500,211.833 46.833 C 211.833 47.167,211.917 47.333,212.083 47.333 C 212.250 47.333,212.333 47.500,212.333 47.833 C 212.333 48.167,212.417 48.333,212.583 48.333 C 212.721 48.333,212.833 48.446,212.833 48.583 C 212.833 48.721,212.946 48.833,213.083 48.833 C 213.221 48.833,213.333 48.946,213.333 49.083 C 213.333 49.221,213.446 49.333,213.583 49.333 C 213.721 49.333,213.833 49.446,213.833 49.583 C 213.833 49.721,213.946 49.833,214.083 49.833 C 214.250 49.833,214.333 50.000,214.333 50.333 C 214.333 50.778,214.389 50.833,214.833 50.833 C 215.167 50.833,215.333 50.917,215.333 51.083 C 215.333 51.221,215.446 51.333,215.583 51.333 C 215.721 51.333,215.833 51.446,215.833 51.583 C 215.833 51.721,215.946 51.833,216.083 51.833 C 216.221 51.833,216.333 51.946,216.333 52.083 C 216.333 52.221,216.446 52.333,216.583 52.333 C 216.721 52.333,216.833 52.446,216.833 52.583 C 216.833 52.750,217.000 52.833,217.333 52.833 C 217.667 52.833,217.833 52.917,217.833 53.083 C 217.833 53.221,217.946 53.333,218.083 53.333 C 218.221 53.333,218.333 53.446,218.333 53.583 C 218.333 53.750,218.500 53.833,218.833 53.833 C 219.167 53.833,219.333 53.917,219.333 54.083 C 219.333 54.250,219.500 54.333,219.833 54.333 C 220.167 54.333,220.333 54.417,220.333 54.583 C 220.333 54.769,220.528 54.833,221.083 54.833 C 221.639 54.833,221.833 54.898,221.833 55.083 C 221.833 55.283,222.083 55.333,223.083 55.333 C 224.083 55.333,224.333 55.383,224.333 55.583 C 224.333 55.797,224.806 55.833,227.583 55.833 C 230.361 55.833,230.833 55.797,230.833 55.583 C 230.833 55.389,231.056 55.333,231.833 55.333 C 232.611 55.333,232.833 55.278,232.833 55.083 C 232.833 54.894,233.037 54.833,233.667 54.833 C 234.296 54.833,234.500 54.772,234.500 54.583 C 234.500 54.417,234.667 54.333,235.000 54.333 C 235.333 54.333,235.500 54.250,235.500 54.083 C 235.500 53.917,235.667 53.833,236.000 53.833 C 236.275 53.833,236.500 53.759,236.500 53.669 C 236.500 53.364,237.071 52.833,237.399 52.833 C 237.578 52.833,238.047 52.496,238.442 52.083 C 238.838 51.671,239.237 51.333,239.331 51.333 C 239.424 51.333,239.500 51.221,239.500 51.083 C 239.500 50.946,239.612 50.833,239.750 50.833 C 239.958 50.833,240.000 51.167,240.000 52.833 L 240.000 54.833 247.000 54.833 L 254.000 54.833 254.000 51.333 L 254.000 47.833 250.750 47.833 L 247.500 47.833 247.500 25.583 L 247.500 3.333 240.278 3.333 C 236.306 3.333,233.006 3.383,232.944 3.444 M42.000 18.083 C 42.000 18.278,41.778 18.333,41.000 18.333 C 40.222 18.333,40.000 18.389,40.000 18.583 C 40.000 18.769,39.806 18.833,39.250 18.833 C 38.694 18.833,38.500 18.898,38.500 19.083 C 38.500 19.250,38.333 19.333,38.000 19.333 C 37.667 19.333,37.500 19.417,37.500 19.583 C 37.500 19.750,37.333 19.833,37.000 19.833 C 36.667 19.833,36.500 19.917,36.500 20.083 C 36.500 20.250,36.333 20.333,36.000 20.333 C 35.667 20.333,35.500 20.417,35.500 20.583 C 35.500 20.721,35.387 20.833,35.250 20.833 C 35.112 20.833,35.000 20.946,35.000 21.083 C 35.000 21.250,34.833 21.333,34.500 21.333 C 34.167 21.333,34.000 21.417,34.000 21.583 C 34.000 21.721,33.887 21.833,33.750 21.833 C 33.612 21.833,33.500 21.946,33.500 22.083 C 33.500 22.221,33.425 22.333,33.333 22.333 C 33.117 22.333,32.404 23.046,32.458 23.208 C 32.481 23.277,32.350 23.333,32.167 23.333 C 31.981 23.333,31.833 23.444,31.833 23.583 C 31.833 23.721,31.716 23.833,31.573 23.833 C 31.431 23.833,31.363 23.913,31.424 24.011 C 31.484 24.109,31.376 24.230,31.183 24.281 C 30.991 24.331,30.833 24.476,30.833 24.603 C 30.833 24.730,30.721 24.833,30.583 24.833 C 30.423 24.833,30.331 24.999,30.326 25.292 C 30.322 25.591,30.148 25.892,29.826 26.159 C 29.542 26.395,29.333 26.730,29.333 26.951 C 29.333 27.180,29.233 27.333,29.083 27.333 C 28.946 27.333,28.842 27.390,28.853 27.458 C 28.926 27.918,28.798 28.333,28.583 28.333 C 28.446 28.333,28.342 28.390,28.353 28.458 C 28.426 28.918,28.298 29.333,28.083 29.333 C 27.898 29.333,27.833 29.528,27.833 30.083 C 27.833 30.639,27.769 30.833,27.583 30.833 C 27.383 30.833,27.333 31.083,27.333 32.083 C 27.333 33.083,27.283 33.333,27.083 33.333 C 26.869 33.333,26.833 33.833,26.833 36.833 C 26.833 39.833,26.869 40.333,27.083 40.333 C 27.283 40.333,27.333 40.583,27.333 41.583 C 27.333 42.583,27.383 42.833,27.583 42.833 C 27.769 42.833,27.833 43.028,27.833 43.583 C 27.833 44.139,27.898 44.333,28.083 44.333 C 28.250 44.333,28.333 44.500,28.333 44.833 C 28.333 45.167,28.417 45.333,28.583 45.333 C 28.740 45.333,28.833 45.491,28.833 45.755 C 28.833 45.987,28.946 46.220,29.083 46.273 C 29.221 46.326,29.333 46.551,29.333 46.773 C 29.333 46.995,29.446 47.220,29.583 47.273 C 29.726 47.328,29.833 47.576,29.833 47.851 C 29.833 48.227,29.909 48.333,30.177 48.333 C 30.377 48.333,30.474 48.407,30.410 48.511 C 30.349 48.609,30.456 48.730,30.648 48.780 C 30.840 48.830,30.957 48.934,30.910 49.011 C 30.863 49.087,30.978 49.232,31.167 49.333 C 31.355 49.434,31.465 49.588,31.411 49.675 C 31.358 49.762,31.431 49.833,31.573 49.833 C 31.716 49.833,31.833 49.946,31.833 50.083 C 31.833 50.222,31.981 50.333,32.167 50.333 C 32.350 50.333,32.481 50.390,32.458 50.458 C 32.404 50.621,33.117 51.333,33.333 51.333 C 33.425 51.333,33.500 51.446,33.500 51.583 C 33.500 51.721,33.612 51.833,33.750 51.833 C 33.887 51.833,34.000 51.946,34.000 52.083 C 34.000 52.221,34.112 52.333,34.250 52.333 C 34.387 52.333,34.500 52.446,34.500 52.583 C 34.500 52.750,34.667 52.833,35.000 52.833 C 35.333 52.833,35.500 52.917,35.500 53.083 C 35.500 53.250,35.667 53.333,36.000 53.333 C 36.333 53.333,36.500 53.417,36.500 53.583 C 36.500 53.750,36.667 53.833,37.000 53.833 C 37.333 53.833,37.500 53.917,37.500 54.083 C 37.500 54.250,37.667 54.333,38.000 54.333 C 38.333 54.333,38.500 54.417,38.500 54.583 C 38.500 54.769,38.694 54.833,39.250 54.833 C 39.806 54.833,40.000 54.898,40.000 55.083 C 40.000 55.278,40.222 55.333,41.000 55.333 C 41.778 55.333,42.000 55.389,42.000 55.583 C 42.000 55.798,42.500 55.833,45.500 55.833 C 48.500 55.833,49.000 55.798,49.000 55.583 C 49.000 55.383,49.250 55.333,50.250 55.333 C 51.250 55.333,51.500 55.283,51.500 55.083 C 51.500 54.898,51.694 54.833,52.250 54.833 C 52.806 54.833,53.000 54.769,53.000 54.583 C 53.000 54.417,53.167 54.333,53.500 54.333 C 53.833 54.333,54.000 54.250,54.000 54.083 C 54.000 53.917,54.167 53.833,54.500 53.833 C 54.833 53.833,55.000 53.750,55.000 53.583 C 55.000 53.417,55.167 53.333,55.500 53.333 C 55.833 53.333,56.000 53.250,56.000 53.083 C 56.000 52.946,56.112 52.833,56.250 52.833 C 56.387 52.833,56.500 52.721,56.500 52.583 C 56.500 52.417,56.667 52.333,57.000 52.333 C 57.333 52.333,57.500 52.250,57.500 52.083 C 57.500 51.946,57.612 51.833,57.750 51.833 C 57.887 51.833,58.000 51.721,58.000 51.583 C 58.000 51.446,58.112 51.333,58.250 51.333 C 58.387 51.333,58.500 51.221,58.500 51.083 C 58.500 50.946,58.612 50.833,58.750 50.833 C 58.887 50.833,59.000 50.721,59.000 50.583 C 59.000 50.446,59.112 50.333,59.250 50.333 C 59.387 50.333,59.500 50.221,59.500 50.083 C 59.500 49.946,59.612 49.833,59.750 49.833 C 59.887 49.833,60.000 49.721,60.000 49.583 C 60.000 49.446,60.112 49.333,60.250 49.333 C 60.387 49.333,60.500 49.221,60.500 49.083 C 60.500 48.946,60.612 48.833,60.750 48.833 C 60.887 48.833,61.000 48.721,61.000 48.583 C 61.000 48.446,61.112 48.333,61.250 48.333 C 61.417 48.333,61.500 48.167,61.500 47.833 C 61.500 47.500,61.583 47.333,61.750 47.333 C 61.917 47.333,62.000 47.167,62.000 46.833 C 62.000 46.500,62.083 46.333,62.250 46.333 C 62.417 46.333,62.500 46.167,62.500 45.833 C 62.500 45.500,62.583 45.333,62.750 45.333 C 62.917 45.333,63.000 45.167,63.000 44.833 C 63.000 44.500,63.083 44.333,63.250 44.333 C 63.435 44.333,63.500 44.139,63.500 43.583 C 63.500 43.028,63.565 42.833,63.750 42.833 C 63.950 42.833,64.000 42.583,64.000 41.583 C 64.000 40.583,64.050 40.333,64.250 40.333 C 64.464 40.333,64.500 39.833,64.500 36.833 C 64.500 33.833,64.464 33.333,64.250 33.333 C 64.050 33.333,64.000 33.083,64.000 32.083 C 64.000 31.083,63.950 30.833,63.750 30.833 C 63.565 30.833,63.500 30.639,63.500 30.083 C 63.500 29.528,63.435 29.333,63.250 29.333 C 63.083 29.333,63.000 29.167,63.000 28.833 C 63.000 28.500,62.917 28.333,62.750 28.333 C 62.583 28.333,62.500 28.167,62.500 27.833 C 62.500 27.500,62.417 27.333,62.250 27.333 C 62.083 27.333,62.000 27.167,62.000 26.833 C 62.000 26.500,61.917 26.333,61.750 26.333 C 61.583 26.333,61.500 26.167,61.500 25.833 C 61.500 25.500,61.417 25.333,61.250 25.333 C 61.112 25.333,61.000 25.221,61.000 25.083 C 61.000 24.946,60.887 24.833,60.750 24.833 C 60.612 24.833,60.500 24.721,60.500 24.583 C 60.500 24.446,60.387 24.333,60.250 24.333 C 60.112 24.333,60.000 24.221,60.000 24.083 C 60.000 23.946,59.887 23.833,59.750 23.833 C 59.612 23.833,59.500 23.721,59.500 23.583 C 59.500 23.446,59.387 23.333,59.250 23.333 C 59.112 23.333,59.000 23.221,59.000 23.083 C 59.000 22.946,58.887 22.833,58.750 22.833 C 58.612 22.833,58.500 22.721,58.500 22.583 C 58.500 22.446,58.387 22.333,58.250 22.333 C 58.112 22.333,58.000 22.221,58.000 22.083 C 58.000 21.946,57.887 21.833,57.750 21.833 C 57.612 21.833,57.500 21.721,57.500 21.583 C 57.500 21.417,57.333 21.333,57.000 21.333 C 56.667 21.333,56.500 21.250,56.500 21.083 C 56.500 20.946,56.387 20.833,56.250 20.833 C 56.112 20.833,56.000 20.721,56.000 20.583 C 56.000 20.417,55.833 20.333,55.500 20.333 C 55.167 20.333,55.000 20.250,55.000 20.083 C 55.000 19.917,54.833 19.833,54.500 19.833 C 54.167 19.833,54.000 19.750,54.000 19.583 C 54.000 19.417,53.833 19.333,53.500 19.333 C 53.167 19.333,53.000 19.250,53.000 19.083 C 53.000 18.898,52.806 18.833,52.250 18.833 C 51.694 18.833,51.500 18.769,51.500 18.583 C 51.500 18.383,51.250 18.333,50.250 18.333 C 49.250 18.333,49.000 18.283,49.000 18.083 C 49.000 17.869,48.500 17.833,45.500 17.833 C 42.500 17.833,42.000 17.869,42.000 18.083 M138.000 18.083 C 138.000 18.278,137.778 18.333,137.000 18.333 C 136.222 18.333,136.000 18.389,136.000 18.583 C 136.000 18.769,135.806 18.833,135.250 18.833 C 134.694 18.833,134.500 18.898,134.500 19.083 C 134.500 19.268,134.308 19.333,133.768 19.333 C 133.271 19.333,133.005 19.414,132.940 19.583 C 132.884 19.729,132.634 19.833,132.339 19.833 C 132.001 19.833,131.833 19.916,131.833 20.083 C 131.833 20.221,131.721 20.333,131.583 20.333 C 131.446 20.333,131.352 20.427,131.375 20.542 C 131.399 20.660,131.214 20.773,130.948 20.804 C 130.691 20.833,130.439 20.964,130.389 21.095 C 130.339 21.226,130.193 21.333,130.066 21.333 C 129.938 21.333,129.833 21.446,129.833 21.583 C 129.833 21.721,129.721 21.833,129.583 21.833 C 129.446 21.833,129.333 21.946,129.333 22.083 C 129.333 22.229,129.182 22.333,128.971 22.333 C 128.760 22.333,128.311 22.645,127.891 23.083 C 127.496 23.496,127.096 23.833,127.003 23.833 C 126.910 23.833,126.833 23.946,126.833 24.083 C 126.833 24.221,126.721 24.333,126.583 24.333 C 126.417 24.333,126.333 24.500,126.333 24.833 C 126.333 25.167,126.250 25.333,126.083 25.333 C 125.946 25.333,125.833 25.446,125.833 25.583 C 125.833 25.721,125.721 25.833,125.583 25.833 C 125.446 25.833,125.333 25.946,125.333 26.083 C 125.333 26.221,125.221 26.333,125.083 26.333 C 124.917 26.333,124.833 26.500,124.833 26.833 C 124.833 27.167,124.750 27.333,124.583 27.333 C 124.417 27.333,124.333 27.500,124.333 27.833 C 124.333 28.167,124.250 28.333,124.083 28.333 C 123.917 28.333,123.833 28.500,123.833 28.833 C 123.833 29.167,123.750 29.333,123.583 29.333 C 123.398 29.333,123.333 29.528,123.333 30.083 C 123.333 30.639,123.269 30.833,123.083 30.833 C 122.883 30.833,122.833 31.083,122.833 32.083 C 122.833 33.083,122.783 33.333,122.583 33.333 C 122.369 33.333,122.333 33.833,122.333 36.833 C 122.333 39.833,122.369 40.333,122.583 40.333 C 122.783 40.333,122.833 40.583,122.833 41.583 C 122.833 42.583,122.883 42.833,123.083 42.833 C 123.269 42.833,123.333 43.028,123.333 43.583 C 123.333 44.139,123.398 44.333,123.583 44.333 C 123.750 44.333,123.833 44.500,123.833 44.833 C 123.833 45.167,123.917 45.333,124.083 45.333 C 124.250 45.333,124.333 45.500,124.333 45.833 C 124.333 46.167,124.417 46.333,124.583 46.333 C 124.750 46.333,124.833 46.500,124.833 46.833 C 124.833 47.167,124.917 47.333,125.083 47.333 C 125.221 47.333,125.333 47.446,125.333 47.583 C 125.333 47.721,125.446 47.833,125.583 47.833 C 125.750 47.833,125.833 48.000,125.833 48.333 C 125.833 48.667,125.917 48.833,126.083 48.833 C 126.221 48.833,126.333 48.946,126.333 49.083 C 126.333 49.221,126.446 49.333,126.583 49.333 C 126.721 49.333,126.833 49.446,126.833 49.583 C 126.833 49.721,126.946 49.833,127.083 49.833 C 127.221 49.833,127.333 49.946,127.333 50.083 C 127.333 50.221,127.446 50.333,127.583 50.333 C 127.721 50.333,127.833 50.446,127.833 50.583 C 127.833 50.721,127.946 50.833,128.083 50.833 C 128.221 50.833,128.333 50.946,128.333 51.083 C 128.333 51.240,128.491 51.333,128.756 51.333 C 129.005 51.333,129.378 51.538,129.667 51.833 C 129.935 52.108,130.231 52.333,130.322 52.333 C 130.414 52.333,130.448 52.441,130.398 52.572 C 130.332 52.744,130.461 52.825,130.862 52.863 C 131.196 52.896,131.400 52.999,131.375 53.125 C 131.349 53.253,131.519 53.333,131.816 53.333 C 132.090 53.333,132.339 53.441,132.394 53.583 C 132.450 53.729,132.699 53.833,132.995 53.833 C 133.333 53.833,133.500 53.916,133.500 54.083 C 133.500 54.250,133.667 54.333,134.000 54.333 C 134.333 54.333,134.500 54.417,134.500 54.583 C 134.500 54.778,134.722 54.833,135.500 54.833 C 136.278 54.833,136.500 54.889,136.500 55.083 C 136.500 55.278,136.722 55.333,137.500 55.333 C 138.278 55.333,138.500 55.389,138.500 55.583 C 138.500 55.798,139.028 55.833,142.250 55.833 C 145.472 55.833,146.000 55.798,146.000 55.583 C 146.000 55.383,146.250 55.333,147.250 55.333 C 148.250 55.333,148.500 55.283,148.500 55.083 C 148.500 54.898,148.694 54.833,149.250 54.833 C 149.806 54.833,150.000 54.769,150.000 54.583 C 150.000 54.398,150.194 54.333,150.750 54.333 C 151.306 54.333,151.500 54.269,151.500 54.083 C 151.500 53.917,151.667 53.833,152.000 53.833 C 152.333 53.833,152.500 53.750,152.500 53.583 C 152.500 53.417,152.667 53.333,153.000 53.333 C 153.333 53.333,153.500 53.250,153.500 53.083 C 153.500 52.917,153.667 52.833,154.000 52.833 C 154.333 52.833,154.500 52.750,154.500 52.583 C 154.500 52.446,154.612 52.333,154.750 52.333 C 154.887 52.333,155.000 52.221,155.000 52.083 C 155.000 51.917,155.167 51.833,155.500 51.833 C 155.833 51.833,156.000 51.750,156.000 51.583 C 156.000 51.446,156.112 51.333,156.250 51.333 C 156.387 51.333,156.500 51.221,156.500 51.083 C 156.500 50.946,156.612 50.833,156.750 50.833 C 156.887 50.833,157.000 50.721,157.000 50.583 C 157.000 50.446,157.112 50.333,157.250 50.333 C 157.387 50.333,157.500 50.221,157.500 50.083 C 157.500 49.946,157.612 49.833,157.750 49.833 C 157.887 49.833,158.000 49.721,158.000 49.583 C 158.000 49.446,158.112 49.333,158.250 49.333 C 158.387 49.333,158.500 49.221,158.500 49.083 C 158.500 48.946,158.612 48.833,158.750 48.833 C 158.887 48.833,159.000 48.721,159.000 48.583 C 159.000 48.446,159.112 48.333,159.250 48.333 C 159.387 48.333,159.500 48.221,159.500 48.083 C 159.500 47.946,159.612 47.833,159.750 47.833 C 159.917 47.833,160.000 47.667,160.000 47.333 C 160.000 47.000,160.083 46.833,160.250 46.833 C 160.417 46.833,160.500 46.667,160.500 46.333 C 160.500 45.889,160.444 45.833,160.000 45.833 C 159.667 45.833,159.500 45.750,159.500 45.583 C 159.500 45.417,159.333 45.333,159.000 45.333 C 158.667 45.333,158.500 45.250,158.500 45.083 C 158.500 44.898,158.306 44.833,157.750 44.833 C 157.194 44.833,157.000 44.769,157.000 44.583 C 157.000 44.417,156.833 44.333,156.500 44.333 C 156.167 44.333,156.000 44.250,156.000 44.083 C 156.000 43.917,155.833 43.833,155.500 43.833 C 155.158 43.833,155.000 43.751,155.000 43.574 C 155.000 43.110,153.597 43.319,153.530 43.793 C 153.463 44.261,150.920 46.833,150.524 46.833 C 150.365 46.833,150.050 47.055,149.826 47.326 C 149.598 47.601,149.248 47.822,149.036 47.826 C 148.827 47.830,148.613 47.946,148.560 48.083 C 148.495 48.253,148.229 48.333,147.732 48.333 C 147.192 48.333,147.000 48.399,147.000 48.583 C 147.000 48.778,146.778 48.833,146.000 48.833 C 145.222 48.833,145.000 48.889,145.000 49.083 C 145.000 49.294,144.611 49.333,142.500 49.333 C 140.389 49.333,140.000 49.294,140.000 49.083 C 140.000 48.889,139.778 48.833,139.000 48.833 C 138.222 48.833,138.000 48.778,138.000 48.583 C 138.000 48.419,137.835 48.333,137.518 48.333 C 137.243 48.333,136.994 48.226,136.940 48.083 C 136.887 47.946,136.681 47.833,136.482 47.833 C 136.282 47.833,135.904 47.608,135.642 47.333 C 135.379 47.058,135.048 46.833,134.907 46.833 C 134.511 46.833,133.500 45.763,133.500 45.343 C 133.500 45.109,133.375 44.936,133.167 44.882 C 132.983 44.834,132.833 44.691,132.833 44.564 C 132.833 44.437,132.721 44.333,132.583 44.333 C 132.446 44.333,132.333 44.221,132.333 44.083 C 132.333 43.946,132.221 43.833,132.083 43.833 C 131.917 43.833,131.833 43.667,131.833 43.333 C 131.833 43.000,131.750 42.833,131.583 42.833 C 131.398 42.833,131.333 42.639,131.333 42.083 C 131.333 41.528,131.269 41.333,131.083 41.333 C 130.898 41.333,130.833 41.139,130.833 40.583 C 130.833 40.028,130.769 39.833,130.583 39.833 C 130.417 39.833,130.333 39.667,130.333 39.333 L 130.333 38.833 145.417 38.833 L 160.500 38.833 160.500 36.833 C 160.500 35.167,160.458 34.833,160.250 34.833 C 160.050 34.833,160.000 34.583,160.000 33.583 C 160.000 32.583,159.950 32.333,159.750 32.333 C 159.556 32.333,159.500 32.111,159.500 31.333 C 159.500 30.556,159.444 30.333,159.250 30.333 C 159.065 30.333,159.000 30.139,159.000 29.583 C 159.000 29.028,158.935 28.833,158.750 28.833 C 158.583 28.833,158.500 28.667,158.500 28.333 C 158.500 28.000,158.417 27.833,158.250 27.833 C 158.083 27.833,158.000 27.667,158.000 27.333 C 158.000 27.000,157.917 26.833,157.750 26.833 C 157.612 26.833,157.500 26.721,157.500 26.583 C 157.500 26.446,157.387 26.333,157.250 26.333 C 157.083 26.333,157.000 26.167,157.000 25.833 C 157.000 25.500,156.917 25.333,156.750 25.333 C 156.612 25.333,156.500 25.221,156.500 25.083 C 156.500 24.946,156.387 24.833,156.250 24.833 C 156.112 24.833,156.000 24.721,156.000 24.583 C 156.000 24.446,155.887 24.333,155.750 24.333 C 155.612 24.333,155.500 24.221,155.500 24.083 C 155.500 23.946,155.387 23.833,155.250 23.833 C 155.112 23.833,155.000 23.721,155.000 23.583 C 155.000 23.446,154.887 23.333,154.750 23.333 C 154.612 23.333,154.500 23.221,154.500 23.083 C 154.500 22.946,154.387 22.833,154.250 22.833 C 154.112 22.833,154.000 22.721,154.000 22.583 C 154.000 22.446,153.887 22.333,153.750 22.333 C 153.612 22.333,153.500 22.221,153.500 22.083 C 153.500 21.917,153.333 21.833,153.000 21.833 C 152.667 21.833,152.500 21.750,152.500 21.583 C 152.500 21.446,152.387 21.333,152.250 21.333 C 152.112 21.333,152.000 21.221,152.000 21.083 C 152.000 20.946,151.887 20.833,151.750 20.833 C 151.612 20.833,151.500 20.721,151.500 20.583 C 151.500 20.417,151.333 20.333,151.000 20.333 C 150.667 20.333,150.500 20.250,150.500 20.083 C 150.500 19.917,150.333 19.833,150.000 19.833 C 149.667 19.833,149.500 19.750,149.500 19.583 C 149.500 19.398,149.306 19.333,148.750 19.333 C 148.194 19.333,148.000 19.269,148.000 19.083 C 148.000 18.917,147.833 18.833,147.500 18.833 C 147.167 18.833,147.000 18.750,147.000 18.583 C 147.000 18.384,146.752 18.333,145.768 18.333 C 144.826 18.333,144.513 18.274,144.440 18.083 C 144.359 17.873,143.838 17.833,141.172 17.833 C 138.464 17.833,138.000 17.870,138.000 18.083 M188.167 18.083 C 188.167 18.278,187.944 18.333,187.167 18.333 C 186.389 18.333,186.167 18.389,186.167 18.583 C 186.167 18.769,185.972 18.833,185.417 18.833 C 184.861 18.833,184.667 18.898,184.667 19.083 C 184.667 19.250,184.500 19.333,184.167 19.333 C 183.833 19.333,183.667 19.417,183.667 19.583 C 183.667 19.769,183.472 19.833,182.917 19.833 C 182.361 19.833,182.167 19.898,182.167 20.083 C 182.167 20.221,182.054 20.333,181.917 20.333 C 181.779 20.333,181.667 20.446,181.667 20.583 C 181.667 20.750,181.500 20.833,181.167 20.833 C 180.833 20.833,180.667 20.917,180.667 21.083 C 180.667 21.250,180.500 21.333,180.167 21.333 C 179.833 21.333,179.667 21.417,179.667 21.583 C 179.667 21.721,179.554 21.833,179.417 21.833 C 179.279 21.833,179.167 21.946,179.167 22.083 C 179.167 22.221,179.054 22.333,178.917 22.333 C 178.710 22.333,178.667 22.028,178.667 20.583 L 178.667 18.833 171.830 18.833 L 164.993 18.833 165.038 22.292 L 165.083 25.750 168.125 25.795 L 171.167 25.841 171.167 36.837 L 171.167 47.833 168.185 47.833 L 165.203 47.833 165.095 48.261 C 165.036 48.496,164.997 50.071,165.008 51.761 L 165.027 54.833 174.597 54.833 L 184.167 54.833 184.167 51.333 L 184.167 47.833 181.417 47.833 L 178.667 47.833 178.667 38.583 C 178.667 30.472,178.697 29.333,178.917 29.333 C 179.054 29.333,179.167 29.221,179.167 29.083 C 179.167 28.946,179.279 28.833,179.417 28.833 C 179.554 28.833,179.667 28.721,179.667 28.583 C 179.667 28.417,179.833 28.333,180.167 28.333 C 180.500 28.333,180.667 28.250,180.667 28.083 C 180.667 27.946,180.779 27.833,180.917 27.833 C 181.054 27.833,181.167 27.721,181.167 27.583 C 181.167 27.417,181.333 27.333,181.667 27.333 C 182.000 27.333,182.167 27.250,182.167 27.083 C 182.167 26.917,182.333 26.833,182.667 26.833 C 183.000 26.833,183.167 26.750,183.167 26.583 C 183.167 26.417,183.333 26.333,183.667 26.333 C 184.000 26.333,184.167 26.250,184.167 26.083 C 184.167 25.917,184.333 25.833,184.667 25.833 C 185.000 25.833,185.167 25.750,185.167 25.583 C 185.167 25.389,185.389 25.333,186.167 25.333 C 186.944 25.333,187.167 25.278,187.167 25.083 C 187.167 24.880,187.444 24.833,188.667 24.833 C 189.889 24.833,190.167 24.880,190.167 25.083 C 190.167 25.250,190.333 25.333,190.667 25.333 C 191.000 25.333,191.167 25.417,191.167 25.583 C 191.167 25.750,191.333 25.833,191.667 25.833 C 192.111 25.833,192.167 25.889,192.167 26.333 C 192.167 26.667,192.250 26.833,192.417 26.833 C 192.602 26.833,192.667 27.028,192.667 27.583 C 192.667 28.139,192.731 28.333,192.917 28.333 C 193.137 28.333,193.167 29.917,193.167 41.583 L 193.167 54.833 199.750 54.833 L 206.333 54.833 206.333 51.333 L 206.333 47.833 203.583 47.833 L 200.833 47.833 200.833 36.833 C 200.833 27.167,200.803 25.833,200.583 25.833 C 200.383 25.833,200.333 25.583,200.333 24.583 C 200.333 23.444,200.304 23.333,200.000 23.333 C 199.741 23.333,199.667 23.222,199.667 22.833 C 199.667 22.500,199.583 22.333,199.417 22.333 C 199.250 22.333,199.167 22.167,199.167 21.833 C 199.167 21.500,199.083 21.333,198.917 21.333 C 198.779 21.333,198.667 21.221,198.667 21.083 C 198.667 20.946,198.554 20.833,198.417 20.833 C 198.279 20.833,198.167 20.721,198.167 20.583 C 198.167 20.446,198.054 20.333,197.917 20.333 C 197.779 20.333,197.667 20.221,197.667 20.083 C 197.667 19.946,197.554 19.833,197.417 19.833 C 197.279 19.833,197.167 19.721,197.167 19.583 C 197.167 19.417,197.000 19.333,196.667 19.333 C 196.333 19.333,196.167 19.250,196.167 19.083 C 196.167 18.917,196.000 18.833,195.667 18.833 C 195.333 18.833,195.167 18.750,195.167 18.583 C 195.167 18.398,194.972 18.333,194.417 18.333 C 193.861 18.333,193.667 18.269,193.667 18.083 C 193.667 17.871,193.250 17.833,190.917 17.833 C 188.583 17.833,188.167 17.871,188.167 18.083 M63.611 18.944 C 63.550 19.006,63.500 20.581,63.500 22.444 L 63.500 25.833 65.833 25.833 L 68.167 25.833 68.167 26.333 C 68.167 26.667,68.250 26.833,68.417 26.833 C 68.602 26.833,68.667 27.028,68.667 27.583 C 68.667 28.139,68.731 28.333,68.917 28.333 C 69.102 28.333,69.167 28.528,69.167 29.083 C 69.167 29.639,69.231 29.833,69.417 29.833 C 69.602 29.833,69.667 30.028,69.667 30.583 C 69.667 31.139,69.731 31.333,69.917 31.333 C 70.102 31.333,70.167 31.528,70.167 32.083 C 70.167 32.639,70.231 32.833,70.417 32.833 C 70.602 32.833,70.667 33.028,70.667 33.583 C 70.667 34.139,70.731 34.333,70.917 34.333 C 71.102 34.333,71.167 34.528,71.167 35.083 C 71.167 35.639,71.231 35.833,71.417 35.833 C 71.602 35.833,71.667 36.028,71.667 36.583 C 71.667 37.139,71.731 37.333,71.917 37.333 C 72.102 37.333,72.167 37.528,72.167 38.083 C 72.167 38.639,72.231 38.833,72.417 38.833 C 72.602 38.833,72.667 39.028,72.667 39.583 C 72.667 40.139,72.731 40.333,72.917 40.333 C 73.102 40.333,73.167 40.528,73.167 41.083 C 73.167 41.639,73.231 41.833,73.417 41.833 C 73.602 41.833,73.667 42.028,73.667 42.583 C 73.667 43.139,73.731 43.333,73.917 43.333 C 74.102 43.333,74.167 43.528,74.167 44.083 C 74.167 44.639,74.231 44.833,74.417 44.833 C 74.602 44.833,74.667 45.028,74.667 45.583 C 74.667 46.139,74.731 46.333,74.917 46.333 C 75.102 46.333,75.167 46.528,75.167 47.083 C 75.167 47.639,75.231 47.833,75.417 47.833 C 75.602 47.833,75.667 48.028,75.667 48.583 C 75.667 49.139,75.731 49.333,75.917 49.333 C 76.102 49.333,76.167 49.528,76.167 50.083 C 76.167 50.639,76.231 50.833,76.417 50.833 C 76.602 50.833,76.667 51.028,76.667 51.583 C 76.667 52.139,76.731 52.333,76.917 52.333 C 77.111 52.333,77.167 52.556,77.167 53.333 C 77.167 54.111,77.222 54.333,77.417 54.333 C 77.554 54.333,77.667 54.446,77.667 54.583 C 77.667 54.798,78.167 54.833,81.167 54.833 C 84.167 54.833,84.667 54.798,84.667 54.583 C 84.667 54.446,84.779 54.333,84.917 54.333 C 85.102 54.333,85.167 54.139,85.167 53.583 C 85.167 53.028,85.231 52.833,85.417 52.833 C 85.602 52.833,85.667 52.639,85.667 52.083 C 85.667 51.528,85.731 51.333,85.917 51.333 C 86.102 51.333,86.167 51.139,86.167 50.583 C 86.167 50.028,86.231 49.833,86.417 49.833 C 86.602 49.833,86.667 49.639,86.667 49.083 C 86.667 48.528,86.731 48.333,86.917 48.333 C 87.111 48.333,87.167 48.111,87.167 47.333 C 87.167 46.556,87.222 46.333,87.417 46.333 C 87.602 46.333,87.667 46.139,87.667 45.583 C 87.667 45.028,87.731 44.833,87.917 44.833 C 88.102 44.833,88.167 44.639,88.167 44.083 C 88.167 43.528,88.231 43.333,88.417 43.333 C 88.602 43.333,88.667 43.139,88.667 42.583 C 88.667 42.028,88.731 41.833,88.917 41.833 C 89.102 41.833,89.167 41.639,89.167 41.083 C 89.167 40.528,89.231 40.333,89.417 40.333 C 89.602 40.333,89.667 40.139,89.667 39.583 C 89.667 39.028,89.731 38.833,89.917 38.833 C 90.102 38.833,90.167 38.639,90.167 38.083 C 90.167 37.528,90.231 37.333,90.417 37.333 C 90.602 37.333,90.667 37.139,90.667 36.583 C 90.667 36.028,90.731 35.833,90.917 35.833 C 91.102 35.833,91.167 35.639,91.167 35.083 C 91.167 34.528,91.231 34.333,91.417 34.333 C 91.602 34.333,91.667 34.139,91.667 33.583 C 91.667 33.028,91.731 32.833,91.917 32.833 C 92.102 32.833,92.167 32.639,92.167 32.083 C 92.167 31.361,92.185 31.333,92.667 31.333 C 93.148 31.333,93.167 31.361,93.167 32.083 C 93.167 32.639,93.231 32.833,93.417 32.833 C 93.598 32.833,93.667 33.019,93.667 33.505 C 93.667 33.949,93.752 34.210,93.917 34.273 C 94.080 34.336,94.167 34.595,94.167 35.023 C 94.167 35.451,94.253 35.710,94.417 35.773 C 94.579 35.835,94.667 36.094,94.667 36.510 C 94.667 36.870,94.765 37.208,94.891 37.283 C 95.015 37.357,95.163 37.716,95.221 38.082 C 95.278 38.448,95.402 38.773,95.496 38.804 C 95.590 38.836,95.667 39.192,95.667 39.597 C 95.667 40.140,95.732 40.333,95.917 40.333 C 96.134 40.333,96.283 41.094,96.186 41.708 C 96.176 41.777,96.279 41.833,96.417 41.833 C 96.602 41.833,96.667 42.028,96.667 42.583 C 96.667 43.139,96.731 43.333,96.917 43.333 C 97.097 43.333,97.167 43.518,97.167 43.992 C 97.167 44.394,97.261 44.703,97.409 44.786 C 97.542 44.860,97.670 45.210,97.694 45.563 C 97.718 45.916,97.834 46.241,97.952 46.287 C 98.082 46.337,98.167 46.658,98.167 47.101 C 98.167 47.733,98.215 47.833,98.515 47.833 C 98.835 47.833,98.858 47.912,98.806 48.834 C 98.766 49.553,98.809 49.834,98.958 49.834 C 99.133 49.833,99.267 50.547,99.185 51.046 C 99.173 51.118,99.277 51.219,99.415 51.272 C 99.557 51.327,99.667 51.574,99.667 51.838 C 99.667 52.475,99.823 52.833,100.101 52.833 C 100.265 52.833,100.333 53.053,100.333 53.583 C 100.333 54.139,100.398 54.333,100.583 54.333 C 100.721 54.333,100.833 54.446,100.833 54.583 C 100.833 54.798,101.333 54.833,104.333 54.833 C 107.333 54.833,107.833 54.798,107.833 54.583 C 107.833 54.446,107.946 54.333,108.083 54.333 C 108.269 54.333,108.333 54.139,108.333 53.583 C 108.333 53.028,108.398 52.833,108.583 52.833 C 108.768 52.833,108.833 52.641,108.833 52.101 C 108.833 51.604,108.914 51.338,109.083 51.273 C 109.247 51.210,109.333 50.951,109.333 50.523 C 109.333 50.095,109.420 49.836,109.583 49.773 C 109.747 49.710,109.833 49.451,109.833 49.023 C 109.833 48.595,109.920 48.336,110.083 48.273 C 110.264 48.204,110.333 47.921,110.333 47.255 C 110.333 46.547,110.391 46.333,110.583 46.333 C 110.769 46.333,110.833 46.139,110.833 45.583 C 110.833 45.028,110.898 44.833,111.083 44.833 C 111.269 44.833,111.333 44.639,111.333 44.083 C 111.333 43.528,111.398 43.333,111.583 43.333 C 111.769 43.333,111.833 43.139,111.833 42.583 C 111.833 42.028,111.898 41.833,112.083 41.833 C 112.269 41.833,112.333 41.639,112.333 41.083 C 112.333 40.528,112.398 40.333,112.583 40.333 C 112.769 40.333,112.833 40.139,112.833 39.583 C 112.833 39.028,112.898 38.833,113.083 38.833 C 113.269 38.833,113.333 38.639,113.333 38.083 C 113.333 37.528,113.398 37.333,113.583 37.333 C 113.769 37.333,113.833 37.139,113.833 36.583 C 113.833 36.028,113.898 35.833,114.083 35.833 C 114.269 35.833,114.333 35.639,114.333 35.083 C 114.333 34.528,114.398 34.333,114.583 34.333 C 114.769 34.333,114.833 34.139,114.833 33.583 C 114.833 33.028,114.898 32.833,115.083 32.833 C 115.269 32.833,115.333 32.639,115.333 32.083 C 115.333 31.528,115.398 31.333,115.583 31.333 C 115.769 31.333,115.833 31.139,115.833 30.583 C 115.833 30.028,115.898 29.833,116.083 29.833 C 116.269 29.833,116.333 29.639,116.333 29.083 C 116.333 28.528,116.398 28.333,116.583 28.333 C 116.769 28.333,116.833 28.139,116.833 27.583 C 116.833 27.028,116.898 26.833,117.083 26.833 C 117.250 26.833,117.333 26.667,117.333 26.333 L 117.333 25.833 119.833 25.833 L 122.333 25.833 122.333 22.333 L 122.333 18.833 114.083 18.833 L 105.833 18.833 105.833 22.333 L 105.833 25.833 108.333 25.833 C 110.444 25.833,110.833 25.872,110.833 26.083 C 110.833 26.221,110.721 26.333,110.583 26.333 C 110.398 26.333,110.333 26.528,110.333 27.083 C 110.333 27.639,110.269 27.833,110.083 27.833 C 109.898 27.833,109.833 28.028,109.833 28.583 C 109.833 29.139,109.769 29.333,109.583 29.333 C 109.398 29.333,109.333 29.528,109.333 30.083 C 109.333 30.639,109.269 30.833,109.083 30.833 C 108.898 30.833,108.833 31.028,108.833 31.583 C 108.833 32.139,108.769 32.333,108.583 32.333 C 108.398 32.333,108.333 32.528,108.333 33.083 C 108.333 33.639,108.269 33.833,108.083 33.833 C 107.898 33.833,107.833 34.028,107.833 34.583 C 107.833 35.139,107.769 35.333,107.583 35.333 C 107.398 35.333,107.333 35.528,107.333 36.083 C 107.333 36.639,107.269 36.833,107.083 36.833 C 106.898 36.833,106.833 37.028,106.833 37.583 C 106.833 38.139,106.769 38.333,106.583 38.333 C 106.398 38.333,106.333 38.528,106.333 39.083 C 106.333 39.639,106.269 39.833,106.083 39.833 C 105.898 39.833,105.833 40.028,105.833 40.583 C 105.833 41.139,105.769 41.333,105.583 41.333 C 105.398 41.333,105.333 41.528,105.333 42.083 C 105.333 42.639,105.269 42.833,105.083 42.833 C 104.898 42.833,104.833 43.028,104.833 43.583 C 104.833 44.139,104.769 44.333,104.583 44.333 C 104.446 44.333,104.333 44.446,104.333 44.583 C 104.333 44.721,104.221 44.833,104.083 44.833 C 103.898 44.833,103.833 44.639,103.833 44.083 C 103.833 43.528,103.769 43.333,103.583 43.333 C 103.389 43.333,103.333 43.111,103.333 42.333 C 103.333 41.556,103.278 41.333,103.083 41.333 C 102.898 41.333,102.833 41.139,102.833 40.583 C 102.833 40.028,102.769 39.833,102.583 39.833 C 102.398 39.833,102.333 39.639,102.333 39.083 C 102.333 38.528,102.269 38.333,102.083 38.333 C 101.866 38.333,101.717 37.572,101.814 36.958 C 101.824 36.890,101.721 36.833,101.583 36.833 C 101.398 36.833,101.333 36.639,101.333 36.083 C 101.333 35.528,101.269 35.333,101.083 35.333 C 100.898 35.333,100.833 35.139,100.833 34.583 C 100.833 34.028,100.769 33.833,100.583 33.833 C 100.398 33.833,100.333 33.639,100.333 33.083 C 100.333 32.444,100.284 32.333,100.000 32.333 C 99.716 32.333,99.667 32.222,99.667 31.583 C 99.667 31.028,99.602 30.833,99.417 30.833 C 99.231 30.833,99.167 30.639,99.167 30.083 C 99.167 29.528,99.102 29.333,98.917 29.333 C 98.731 29.333,98.667 29.139,98.667 28.583 C 98.667 28.028,98.602 27.833,98.417 27.833 C 98.231 27.833,98.167 27.639,98.167 27.083 C 98.167 26.528,98.102 26.333,97.917 26.333 C 97.779 26.333,97.667 26.221,97.667 26.083 C 97.667 25.874,98.009 25.833,99.750 25.833 L 101.833 25.833 101.833 22.333 L 101.833 18.833 92.750 18.833 L 83.667 18.833 83.667 22.333 L 83.667 25.833 85.417 25.833 L 87.167 25.833 87.167 26.833 C 87.167 27.611,87.111 27.833,86.917 27.833 C 86.731 27.833,86.667 28.028,86.667 28.583 C 86.667 29.139,86.602 29.333,86.417 29.333 C 86.231 29.333,86.167 29.528,86.167 30.083 C 86.167 30.639,86.102 30.833,85.917 30.833 C 85.731 30.833,85.667 31.028,85.667 31.583 C 85.667 32.139,85.602 32.333,85.417 32.333 C 85.231 32.333,85.167 32.528,85.167 33.083 C 85.167 33.639,85.102 33.833,84.917 33.833 C 84.731 33.833,84.667 34.028,84.667 34.583 C 84.667 35.139,84.602 35.333,84.417 35.333 C 84.231 35.333,84.167 35.528,84.167 36.083 C 84.167 36.639,84.102 36.833,83.917 36.833 C 83.731 36.833,83.667 37.028,83.667 37.583 C 83.667 38.139,83.602 38.333,83.417 38.333 C 83.231 38.333,83.167 38.528,83.167 39.083 C 83.167 39.639,83.102 39.833,82.917 39.833 C 82.731 39.833,82.667 40.028,82.667 40.583 C 82.667 41.139,82.602 41.333,82.417 41.333 C 82.231 41.333,82.167 41.528,82.167 42.083 C 82.167 42.639,82.102 42.833,81.917 42.833 C 81.731 42.833,81.667 43.028,81.667 43.583 C 81.667 44.306,81.648 44.333,81.167 44.333 C 80.685 44.333,80.667 44.306,80.667 43.583 C 80.667 43.028,80.602 42.833,80.417 42.833 C 80.231 42.833,80.167 42.639,80.167 42.083 C 80.167 41.528,80.102 41.333,79.917 41.333 C 79.731 41.333,79.667 41.139,79.667 40.583 C 79.667 40.028,79.602 39.833,79.417 39.833 C 79.231 39.833,79.167 39.639,79.167 39.083 C 79.167 38.528,79.102 38.333,78.917 38.333 C 78.731 38.333,78.667 38.139,78.667 37.583 C 78.667 37.028,78.602 36.833,78.417 36.833 C 78.231 36.833,78.167 36.639,78.167 36.083 C 78.167 35.528,78.102 35.333,77.917 35.333 C 77.731 35.333,77.667 35.139,77.667 34.583 C 77.667 34.028,77.602 33.833,77.417 33.833 C 77.231 33.833,77.167 33.639,77.167 33.083 C 77.167 32.528,77.102 32.333,76.917 32.333 C 76.731 32.333,76.667 32.139,76.667 31.583 C 76.667 31.028,76.602 30.833,76.417 30.833 C 76.231 30.833,76.167 30.639,76.167 30.083 C 76.167 29.528,76.102 29.333,75.917 29.333 C 75.731 29.333,75.667 29.139,75.667 28.583 C 75.667 28.028,75.602 27.833,75.417 27.833 C 75.231 27.833,75.167 27.639,75.167 27.083 C 75.167 26.528,75.102 26.333,74.917 26.333 C 74.779 26.333,74.667 26.221,74.667 26.083 C 74.667 25.873,75.028 25.833,76.917 25.833 L 79.167 25.833 79.167 22.333 L 79.167 18.833 71.444 18.833 C 67.197 18.833,63.672 18.883,63.611 18.944 M143.500 24.583 C 143.500 24.769,143.694 24.833,144.250 24.833 C 144.806 24.833,145.000 24.898,145.000 25.083 C 145.000 25.269,145.194 25.333,145.750 25.333 C 146.306 25.333,146.500 25.398,146.500 25.583 C 146.500 25.721,146.612 25.833,146.750 25.833 C 146.887 25.833,147.000 25.946,147.000 26.083 C 147.000 26.250,147.167 26.333,147.500 26.333 C 147.833 26.333,148.000 26.417,148.000 26.583 C 148.000 26.721,148.112 26.833,148.250 26.833 C 148.387 26.833,148.500 26.946,148.500 27.083 C 148.500 27.221,148.571 27.333,148.659 27.333 C 148.940 27.333,150.500 29.006,150.500 29.307 C 150.500 29.468,150.722 29.783,150.993 30.008 C 151.268 30.236,151.489 30.585,151.493 30.797 C 151.497 31.006,151.612 31.220,151.750 31.273 C 151.913 31.336,152.000 31.595,152.000 32.023 C 152.000 32.451,152.087 32.710,152.250 32.773 C 152.387 32.826,152.500 32.973,152.500 33.101 C 152.500 33.297,150.815 33.333,141.667 33.333 L 130.833 33.333 130.833 32.583 C 130.833 32.028,130.898 31.833,131.083 31.833 C 131.269 31.833,131.333 31.639,131.333 31.083 C 131.333 30.528,131.398 30.333,131.583 30.333 C 131.750 30.333,131.833 30.167,131.833 29.833 C 131.833 29.500,131.917 29.333,132.083 29.333 C 132.221 29.333,132.333 29.221,132.333 29.083 C 132.333 28.946,132.446 28.833,132.583 28.833 C 132.721 28.833,132.833 28.721,132.833 28.583 C 132.833 28.444,132.981 28.333,133.167 28.333 C 133.426 28.333,133.500 28.222,133.500 27.833 C 133.500 27.389,133.556 27.333,134.000 27.333 C 134.333 27.333,134.500 27.250,134.500 27.083 C 134.500 26.946,134.612 26.833,134.750 26.833 C 134.887 26.833,135.000 26.721,135.000 26.583 C 135.000 26.446,135.112 26.333,135.250 26.333 C 135.387 26.333,135.500 26.221,135.500 26.083 C 135.500 25.917,135.667 25.833,136.000 25.833 C 136.333 25.833,136.500 25.750,136.500 25.583 C 136.500 25.417,136.667 25.333,137.000 25.333 C 137.333 25.333,137.500 25.250,137.500 25.083 C 137.500 24.898,137.694 24.833,138.250 24.833 C 138.806 24.833,139.000 24.769,139.000 24.583 C 139.000 24.373,139.361 24.333,141.250 24.333 C 143.139 24.333,143.500 24.373,143.500 24.583 M48.060 25.083 C 48.124 25.248,48.385 25.333,48.828 25.333 C 49.314 25.333,49.500 25.402,49.500 25.583 C 49.500 25.750,49.667 25.833,50.000 25.833 C 50.333 25.833,50.500 25.917,50.500 26.083 C 50.500 26.250,50.667 26.333,51.000 26.333 C 51.333 26.333,51.500 26.417,51.500 26.583 C 51.500 26.721,51.575 26.833,51.667 26.833 C 51.758 26.833,51.983 26.983,52.167 27.167 C 52.350 27.350,52.500 27.575,52.500 27.667 C 52.500 27.758,52.612 27.833,52.750 27.833 C 52.887 27.833,53.000 27.946,53.000 28.083 C 53.000 28.221,53.112 28.333,53.250 28.333 C 53.387 28.333,53.500 28.446,53.500 28.583 C 53.500 28.721,53.612 28.833,53.750 28.833 C 53.887 28.833,54.000 28.946,54.000 29.083 C 54.000 29.221,54.112 29.333,54.250 29.333 C 54.417 29.333,54.500 29.500,54.500 29.833 C 54.500 30.167,54.583 30.333,54.750 30.333 C 54.917 30.333,55.000 30.500,55.000 30.833 C 55.000 31.167,55.083 31.333,55.250 31.333 C 55.417 31.333,55.500 31.500,55.500 31.833 C 55.500 32.167,55.583 32.333,55.750 32.333 C 55.944 32.333,56.000 32.556,56.000 33.333 C 56.000 34.111,56.056 34.333,56.250 34.333 C 56.461 34.333,56.500 34.720,56.500 36.816 C 56.500 38.868,56.457 39.314,56.250 39.394 C 56.070 39.463,56.000 39.744,56.000 40.394 C 56.000 41.043,55.930 41.325,55.750 41.394 C 55.612 41.446,55.500 41.671,55.500 41.894 C 55.500 42.116,55.387 42.341,55.250 42.394 C 55.112 42.446,55.000 42.671,55.000 42.894 C 55.000 43.116,54.887 43.341,54.750 43.394 C 54.612 43.446,54.500 43.637,54.500 43.817 C 54.500 44.010,53.840 44.805,52.906 45.739 C 51.972 46.673,51.176 47.333,50.984 47.333 C 50.804 47.333,50.613 47.446,50.560 47.583 C 50.508 47.721,50.283 47.833,50.060 47.833 C 49.838 47.833,49.613 47.946,49.560 48.083 C 49.495 48.253,49.229 48.333,48.732 48.333 C 48.192 48.333,48.000 48.399,48.000 48.583 C 48.000 48.793,47.641 48.833,45.768 48.833 C 43.937 48.833,43.518 48.788,43.440 48.583 C 43.376 48.418,43.115 48.333,42.672 48.333 C 42.186 48.333,42.000 48.264,42.000 48.083 C 42.000 47.917,41.833 47.833,41.500 47.833 C 41.167 47.833,41.000 47.750,41.000 47.583 C 41.000 47.417,40.833 47.333,40.500 47.333 C 40.185 47.333,40.000 47.248,40.000 47.103 C 40.000 46.976,39.842 46.831,39.650 46.781 C 39.457 46.730,39.349 46.609,39.410 46.511 C 39.470 46.413,39.403 46.333,39.260 46.333 C 39.117 46.333,39.000 46.221,39.000 46.083 C 39.000 45.946,38.887 45.833,38.750 45.833 C 38.612 45.833,38.500 45.721,38.500 45.583 C 38.500 45.446,38.387 45.333,38.250 45.333 C 38.112 45.333,38.000 45.221,38.000 45.083 C 38.000 44.946,37.887 44.833,37.750 44.833 C 37.612 44.833,37.500 44.721,37.500 44.583 C 37.500 44.446,37.387 44.333,37.250 44.333 C 37.083 44.333,37.000 44.167,37.000 43.833 C 37.000 43.500,36.917 43.333,36.750 43.333 C 36.583 43.333,36.500 43.167,36.500 42.833 C 36.500 42.500,36.417 42.333,36.250 42.333 C 36.036 42.333,35.908 41.918,35.980 41.458 C 35.991 41.390,35.887 41.333,35.750 41.333 C 35.558 41.333,35.500 41.120,35.500 40.411 C 35.500 39.746,35.431 39.463,35.250 39.394 C 35.043 39.314,35.000 38.868,35.000 36.816 C 35.000 34.720,35.039 34.333,35.250 34.333 C 35.444 34.333,35.500 34.111,35.500 33.333 C 35.500 32.556,35.556 32.333,35.750 32.333 C 35.917 32.333,36.000 32.167,36.000 31.833 C 36.000 31.500,36.083 31.333,36.250 31.333 C 36.415 31.333,36.500 31.169,36.500 30.851 C 36.500 30.576,36.607 30.328,36.750 30.273 C 36.887 30.220,37.000 30.025,37.000 29.839 C 37.000 29.487,37.542 28.833,37.833 28.833 C 37.925 28.833,38.000 28.721,38.000 28.583 C 38.000 28.446,38.112 28.333,38.250 28.333 C 38.387 28.333,38.500 28.221,38.500 28.083 C 38.500 27.946,38.612 27.833,38.750 27.833 C 38.887 27.833,39.000 27.721,39.000 27.583 C 39.000 27.446,39.112 27.333,39.250 27.333 C 39.387 27.333,39.500 27.258,39.500 27.167 C 39.500 26.875,40.154 26.333,40.505 26.333 C 40.691 26.333,40.887 26.221,40.940 26.083 C 40.994 25.941,41.243 25.833,41.518 25.833 C 41.835 25.833,42.000 25.748,42.000 25.583 C 42.000 25.398,42.194 25.333,42.750 25.333 C 43.306 25.333,43.500 25.269,43.500 25.083 C 43.500 24.874,43.859 24.833,45.732 24.833 C 47.563 24.833,47.982 24.878,48.060 25.083 M230.875 25.125 C 230.845 25.273,231.123 25.333,231.839 25.333 C 232.578 25.333,232.869 25.399,232.940 25.583 C 232.994 25.726,233.243 25.833,233.518 25.833 C 233.835 25.833,234.000 25.919,234.000 26.083 C 234.000 26.250,234.167 26.333,234.500 26.333 C 234.833 26.333,235.000 26.417,235.000 26.583 C 235.000 26.721,235.112 26.833,235.250 26.833 C 235.387 26.833,235.500 26.946,235.500 27.083 C 235.500 27.221,235.612 27.333,235.750 27.333 C 235.887 27.333,236.000 27.446,236.000 27.583 C 236.000 27.721,236.112 27.833,236.250 27.833 C 236.387 27.833,236.500 27.946,236.500 28.083 C 236.500 28.221,236.612 28.333,236.750 28.333 C 236.887 28.333,237.000 28.446,237.000 28.583 C 237.000 28.721,237.112 28.833,237.250 28.833 C 237.387 28.833,237.500 28.946,237.500 29.083 C 237.500 29.221,237.612 29.333,237.750 29.333 C 237.887 29.333,238.000 29.446,238.000 29.583 C 238.000 29.721,238.112 29.833,238.250 29.833 C 238.417 29.833,238.500 30.000,238.500 30.333 C 238.500 30.667,238.583 30.833,238.750 30.833 C 238.917 30.833,239.000 31.000,239.000 31.333 C 239.000 31.667,239.083 31.833,239.250 31.833 C 239.444 31.833,239.500 32.056,239.500 32.833 C 239.500 33.611,239.556 33.833,239.750 33.833 C 239.962 33.833,240.000 34.250,240.000 36.583 C 240.000 38.917,239.962 39.333,239.750 39.333 C 239.556 39.333,239.500 39.556,239.500 40.333 C 239.500 41.111,239.444 41.333,239.250 41.333 C 239.083 41.333,239.000 41.500,239.000 41.833 C 239.000 42.167,238.917 42.333,238.750 42.333 C 238.583 42.333,238.500 42.500,238.500 42.833 C 238.500 43.167,238.417 43.333,238.250 43.333 C 238.083 43.333,238.000 43.500,238.000 43.833 C 238.000 44.167,237.917 44.333,237.750 44.333 C 237.612 44.333,237.500 44.446,237.500 44.583 C 237.500 44.721,237.387 44.833,237.250 44.833 C 237.112 44.833,237.000 44.946,237.000 45.083 C 237.000 45.221,236.887 45.333,236.750 45.333 C 236.612 45.333,236.500 45.446,236.500 45.583 C 236.500 45.721,236.387 45.833,236.250 45.833 C 236.112 45.833,236.000 45.946,236.000 46.083 C 236.000 46.221,235.887 46.333,235.750 46.333 C 235.612 46.333,235.500 46.446,235.500 46.583 C 235.500 46.750,235.333 46.833,235.000 46.833 C 234.667 46.833,234.500 46.917,234.500 47.083 C 234.500 47.250,234.333 47.333,234.000 47.333 C 233.667 47.333,233.500 47.417,233.500 47.583 C 233.500 47.751,233.333 47.833,232.995 47.833 C 232.699 47.833,232.450 47.937,232.394 48.083 C 232.331 48.247,232.071 48.333,231.644 48.333 C 231.216 48.333,230.956 48.420,230.894 48.583 C 230.815 48.788,230.396 48.833,228.566 48.833 C 226.692 48.833,226.333 48.793,226.333 48.583 C 226.333 48.398,226.139 48.333,225.583 48.333 C 225.028 48.333,224.833 48.269,224.833 48.083 C 224.833 47.917,224.667 47.833,224.333 47.833 C 224.000 47.833,223.833 47.750,223.833 47.583 C 223.833 47.417,223.667 47.333,223.333 47.333 C 223.000 47.333,222.833 47.250,222.833 47.083 C 222.833 46.946,222.721 46.833,222.583 46.833 C 222.446 46.833,222.333 46.721,222.333 46.583 C 222.333 46.417,222.167 46.333,221.833 46.333 C 221.500 46.333,221.333 46.250,221.333 46.083 C 221.333 45.946,221.221 45.833,221.083 45.833 C 220.946 45.833,220.833 45.721,220.833 45.583 C 220.833 45.446,220.721 45.333,220.583 45.333 C 220.417 45.333,220.333 45.167,220.333 44.833 C 220.333 44.500,220.250 44.333,220.083 44.333 C 219.946 44.333,219.833 44.221,219.833 44.083 C 219.833 43.946,219.721 43.833,219.583 43.833 C 219.417 43.833,219.333 43.667,219.333 43.333 C 219.333 43.000,219.250 42.833,219.083 42.833 C 218.917 42.833,218.833 42.667,218.833 42.333 C 218.833 42.000,218.750 41.833,218.583 41.833 C 218.389 41.833,218.333 41.611,218.333 40.833 C 218.333 40.056,218.278 39.833,218.083 39.833 C 217.871 39.833,217.833 39.417,217.833 37.083 C 217.833 34.750,217.871 34.333,218.083 34.333 C 218.278 34.333,218.333 34.111,218.333 33.333 C 218.333 32.556,218.389 32.333,218.583 32.333 C 218.750 32.333,218.833 32.167,218.833 31.833 C 218.833 31.500,218.917 31.333,219.083 31.333 C 219.250 31.333,219.333 31.167,219.333 30.833 C 219.333 30.500,219.417 30.333,219.583 30.333 C 219.750 30.333,219.833 30.167,219.833 29.833 C 219.833 29.500,219.917 29.333,220.083 29.333 C 220.221 29.333,220.333 29.221,220.333 29.083 C 220.333 28.946,220.446 28.833,220.583 28.833 C 220.721 28.833,220.833 28.721,220.833 28.583 C 220.833 28.446,220.946 28.333,221.083 28.333 C 221.221 28.333,221.333 28.221,221.333 28.083 C 221.333 27.946,221.446 27.833,221.583 27.833 C 221.721 27.833,221.833 27.721,221.833 27.583 C 221.833 27.446,221.946 27.333,222.083 27.333 C 222.221 27.333,222.333 27.221,222.333 27.083 C 222.333 26.946,222.446 26.833,222.583 26.833 C 222.721 26.833,222.833 26.721,222.833 26.583 C 222.833 26.417,223.000 26.333,223.333 26.333 C 223.667 26.333,223.833 26.250,223.833 26.083 C 223.833 25.917,224.000 25.833,224.333 25.833 C 224.667 25.833,224.833 25.750,224.833 25.583 C 224.833 25.398,225.028 25.333,225.583 25.333 C 226.145 25.333,226.333 25.269,226.333 25.079 C 226.333 24.860,226.660 24.831,228.625 24.870 C 230.350 24.905,230.906 24.968,230.875 25.125 " stroke="none" fill="#cccccc" fill-rule="evenodd"></path><path id="path1" d="M255.000 6.833 L 255.000 10.333 258.250 10.333 L 261.500 10.333 261.500 29.083 L 261.500 47.833 258.250 47.833 L 255.000 47.833 255.000 51.333 L 255.000 54.833 265.083 54.833 L 275.167 54.833 275.167 51.333 L 275.167 47.833 272.167 47.833 L 269.167 47.833 269.167 38.583 C 269.167 30.472,269.197 29.333,269.417 29.333 C 269.554 29.333,269.667 29.221,269.667 29.083 C 269.667 28.946,269.779 28.833,269.917 28.833 C 270.054 28.833,270.167 28.721,270.167 28.583 C 270.167 28.417,270.333 28.333,270.667 28.333 C 271.000 28.333,271.167 28.250,271.167 28.083 C 271.167 27.946,271.279 27.833,271.417 27.833 C 271.554 27.833,271.667 27.721,271.667 27.583 C 271.667 27.417,271.833 27.333,272.167 27.333 C 272.500 27.333,272.667 27.250,272.667 27.083 C 272.667 26.917,272.833 26.833,273.167 26.833 C 273.500 26.833,273.667 26.750,273.667 26.583 C 273.667 26.417,273.833 26.333,274.167 26.333 C 274.500 26.333,274.667 26.250,274.667 26.083 C 274.667 25.917,274.833 25.833,275.167 25.833 C 275.500 25.833,275.667 25.750,275.667 25.583 C 275.667 25.398,275.861 25.333,276.417 25.333 C 276.972 25.333,277.167 25.269,277.167 25.083 C 277.167 24.880,277.444 24.833,278.667 24.833 C 279.889 24.833,280.167 24.880,280.167 25.083 C 280.167 25.250,280.333 25.333,280.667 25.333 C 281.000 25.333,281.167 25.417,281.167 25.583 C 281.167 25.750,281.333 25.833,281.667 25.833 C 282.111 25.833,282.167 25.889,282.167 26.333 C 282.167 26.667,282.250 26.833,282.417 26.833 C 282.583 26.833,282.667 27.000,282.667 27.333 C 282.667 27.667,282.750 27.833,282.917 27.833 C 283.137 27.833,283.167 29.444,283.167 41.333 L 283.167 54.833 289.667 54.833 L 296.167 54.833 296.167 51.333 L 296.167 47.833 293.417 47.833 L 290.667 47.833 290.667 36.833 C 290.667 27.167,290.636 25.833,290.417 25.833 C 290.217 25.833,290.167 25.583,290.167 24.583 C 290.167 23.583,290.117 23.333,289.917 23.333 C 289.750 23.333,289.667 23.167,289.667 22.833 C 289.667 22.500,289.583 22.333,289.417 22.333 C 289.250 22.333,289.167 22.167,289.167 21.833 C 289.167 21.500,289.083 21.333,288.917 21.333 C 288.779 21.333,288.667 21.221,288.667 21.083 C 288.667 20.946,288.554 20.833,288.417 20.833 C 288.279 20.833,288.167 20.721,288.167 20.583 C 288.167 20.446,288.054 20.333,287.917 20.333 C 287.779 20.333,287.667 20.221,287.667 20.083 C 287.667 19.946,287.554 19.833,287.417 19.833 C 287.279 19.833,287.167 19.721,287.167 19.583 C 287.167 19.446,287.054 19.333,286.917 19.333 C 286.779 19.333,286.667 19.221,286.667 19.083 C 286.667 18.898,286.472 18.833,285.917 18.833 C 285.361 18.833,285.167 18.769,285.167 18.583 C 285.167 18.398,284.972 18.333,284.417 18.333 C 283.861 18.333,283.667 18.269,283.667 18.083 C 283.667 17.871,283.250 17.833,280.917 17.833 C 278.583 17.833,278.167 17.871,278.167 18.083 C 278.167 18.278,277.944 18.333,277.167 18.333 C 276.389 18.333,276.167 18.389,276.167 18.583 C 276.167 18.769,275.972 18.833,275.417 18.833 C 274.861 18.833,274.667 18.898,274.667 19.083 C 274.667 19.250,274.500 19.333,274.167 19.333 C 273.833 19.333,273.667 19.417,273.667 19.583 C 273.667 19.750,273.500 19.833,273.167 19.833 C 272.833 19.833,272.667 19.917,272.667 20.083 C 272.667 20.250,272.500 20.333,272.167 20.333 C 271.833 20.333,271.667 20.417,271.667 20.583 C 271.667 20.721,271.554 20.833,271.417 20.833 C 271.279 20.833,271.167 20.946,271.167 21.083 C 271.167 21.250,271.000 21.333,270.667 21.333 C 270.333 21.333,270.167 21.417,270.167 21.583 C 270.167 21.721,270.054 21.833,269.917 21.833 C 269.779 21.833,269.667 21.946,269.667 22.083 C 269.667 22.221,269.554 22.333,269.417 22.333 C 269.197 22.333,269.167 21.167,269.167 12.833 L 269.167 3.333 262.083 3.333 L 255.000 3.333 255.000 6.833 M387.667 7.083 C 387.667 7.221,387.554 7.333,387.417 7.333 C 387.279 7.333,387.167 7.446,387.167 7.583 C 387.167 7.721,387.054 7.833,386.917 7.833 C 386.779 7.833,386.667 7.946,386.667 8.083 C 386.667 8.221,386.554 8.333,386.417 8.333 C 386.279 8.333,386.167 8.446,386.167 8.583 C 386.167 8.721,386.054 8.833,385.917 8.833 C 385.779 8.833,385.667 8.946,385.667 9.083 C 385.667 9.221,385.554 9.333,385.417 9.333 C 385.279 9.333,385.167 9.446,385.167 9.583 C 385.167 9.721,385.054 9.833,384.917 9.833 C 384.779 9.833,384.667 9.946,384.667 10.083 C 384.667 10.221,384.554 10.333,384.417 10.333 C 384.279 10.333,384.167 10.446,384.167 10.583 C 384.167 10.721,384.054 10.833,383.917 10.833 C 383.779 10.833,383.667 10.946,383.667 11.083 C 383.667 11.221,383.554 11.333,383.417 11.333 C 383.279 11.333,383.167 11.446,383.167 11.583 C 383.167 11.721,383.054 11.833,382.917 11.833 C 382.779 11.833,382.667 11.946,382.667 12.083 C 382.667 12.221,382.554 12.333,382.417 12.333 C 382.279 12.333,382.167 12.446,382.167 12.583 C 382.167 12.721,382.054 12.833,381.917 12.833 C 381.779 12.833,381.667 12.946,381.667 13.083 C 381.667 13.221,381.554 13.333,381.417 13.333 C 381.205 13.333,381.167 13.750,381.167 16.083 L 381.167 18.833 378.917 18.833 L 376.667 18.833 376.667 22.333 L 376.667 25.833 378.917 25.833 L 381.167 25.833 381.167 37.583 C 381.167 47.917,381.197 49.333,381.417 49.333 C 381.617 49.333,381.667 49.583,381.667 50.583 C 381.667 51.583,381.717 51.833,381.917 51.833 C 382.083 51.833,382.167 52.000,382.167 52.333 C 382.167 52.667,382.250 52.833,382.417 52.833 C 382.554 52.833,382.667 52.946,382.667 53.083 C 382.667 53.221,382.779 53.333,382.917 53.333 C 383.054 53.333,383.167 53.446,383.167 53.583 C 383.167 53.721,383.279 53.833,383.417 53.833 C 383.554 53.833,383.667 53.946,383.667 54.083 C 383.667 54.250,383.833 54.333,384.167 54.333 C 384.500 54.333,384.667 54.417,384.667 54.583 C 384.667 54.721,384.779 54.833,384.917 54.833 C 385.054 54.833,385.167 54.946,385.167 55.083 C 385.167 55.269,385.361 55.333,385.917 55.333 C 386.472 55.333,386.667 55.398,386.667 55.583 C 386.667 55.798,387.167 55.833,390.167 55.833 C 393.167 55.833,393.667 55.798,393.667 55.583 C 393.667 55.398,393.861 55.333,394.417 55.333 L 395.167 55.333 395.167 51.833 L 395.167 48.333 394.417 48.333 C 393.861 48.333,393.667 48.398,393.667 48.583 C 393.667 48.792,393.333 48.833,391.667 48.833 C 390.000 48.833,389.667 48.792,389.667 48.583 C 389.667 48.446,389.554 48.333,389.417 48.333 C 389.250 48.333,389.167 48.167,389.167 47.833 C 389.167 47.500,389.083 47.333,388.917 47.333 C 388.697 47.333,388.667 46.028,388.667 36.583 L 388.667 25.833 391.917 25.833 L 395.167 25.833 395.167 22.333 L 395.167 18.833 391.917 18.833 L 388.667 18.833 388.667 12.833 L 388.667 6.833 388.167 6.833 C 387.833 6.833,387.667 6.917,387.667 7.083 M314.833 18.083 C 314.833 18.278,314.611 18.333,313.833 18.333 C 313.056 18.333,312.833 18.389,312.833 18.583 C 312.833 18.769,312.639 18.833,312.083 18.833 C 311.528 18.833,311.333 18.898,311.333 19.083 C 311.333 19.250,311.167 19.333,310.833 19.333 C 310.500 19.333,310.333 19.417,310.333 19.583 C 310.333 19.750,310.167 19.833,309.833 19.833 C 309.500 19.833,309.333 19.917,309.333 20.083 C 309.333 20.250,309.167 20.333,308.833 20.333 C 308.500 20.333,308.333 20.417,308.333 20.583 C 308.333 20.721,308.221 20.833,308.083 20.833 C 307.946 20.833,307.833 20.946,307.833 21.083 C 307.833 21.250,307.667 21.333,307.333 21.333 C 307.000 21.333,306.833 21.417,306.833 21.583 C 306.833 21.721,306.721 21.833,306.583 21.833 C 306.446 21.833,306.333 21.946,306.333 22.083 C 306.333 22.221,306.221 22.333,306.083 22.333 C 305.946 22.333,305.833 22.446,305.833 22.583 C 305.833 22.721,305.721 22.833,305.583 22.833 C 305.446 22.833,305.333 22.946,305.333 23.083 C 305.333 23.221,305.221 23.333,305.083 23.333 C 304.946 23.333,304.833 23.446,304.833 23.583 C 304.833 23.721,304.721 23.833,304.583 23.833 C 304.446 23.833,304.333 23.946,304.333 24.083 C 304.333 24.221,304.221 24.333,304.083 24.333 C 303.946 24.333,303.833 24.446,303.833 24.583 C 303.833 24.721,303.721 24.833,303.583 24.833 C 303.417 24.833,303.333 25.000,303.333 25.333 C 303.333 25.667,303.250 25.833,303.083 25.833 C 302.946 25.833,302.833 25.946,302.833 26.083 C 302.833 26.221,302.721 26.333,302.583 26.333 C 302.417 26.333,302.333 26.500,302.333 26.833 C 302.333 27.167,302.250 27.333,302.083 27.333 C 301.917 27.333,301.833 27.500,301.833 27.833 C 301.833 28.167,301.750 28.333,301.583 28.333 C 301.417 28.333,301.333 28.500,301.333 28.833 C 301.333 29.167,301.250 29.333,301.083 29.333 C 300.898 29.333,300.833 29.528,300.833 30.083 C 300.833 30.639,300.769 30.833,300.583 30.833 C 300.383 30.833,300.333 31.083,300.333 32.083 C 300.333 33.041,300.279 33.333,300.101 33.333 C 299.510 33.333,299.411 40.131,300.000 40.285 C 300.295 40.362,300.333 40.512,300.333 41.603 C 300.333 42.585,300.384 42.833,300.583 42.833 C 300.769 42.833,300.833 43.028,300.833 43.583 C 300.833 44.139,300.898 44.333,301.083 44.333 C 301.250 44.333,301.333 44.500,301.333 44.833 C 301.333 45.167,301.417 45.333,301.583 45.333 C 301.750 45.333,301.833 45.500,301.833 45.833 C 301.833 46.167,301.917 46.333,302.083 46.333 C 302.250 46.333,302.333 46.500,302.333 46.833 C 302.333 47.167,302.417 47.333,302.583 47.333 C 302.750 47.333,302.833 47.500,302.833 47.833 C 302.833 48.167,302.917 48.333,303.083 48.333 C 303.221 48.333,303.333 48.446,303.333 48.583 C 303.333 48.721,303.446 48.833,303.583 48.833 C 303.721 48.833,303.833 48.946,303.833 49.083 C 303.833 49.221,303.946 49.333,304.083 49.333 C 304.221 49.333,304.333 49.446,304.333 49.583 C 304.333 49.721,304.446 49.833,304.583 49.833 C 304.721 49.833,304.833 49.946,304.833 50.083 C 304.833 50.221,304.946 50.333,305.083 50.333 C 305.221 50.333,305.333 50.446,305.333 50.583 C 305.333 50.721,305.446 50.833,305.583 50.833 C 305.721 50.833,305.833 50.946,305.833 51.083 C 305.833 51.221,305.946 51.333,306.083 51.333 C 306.221 51.333,306.333 51.446,306.333 51.583 C 306.333 51.721,306.446 51.833,306.583 51.833 C 306.721 51.833,306.833 51.946,306.833 52.083 C 306.833 52.221,306.946 52.333,307.083 52.333 C 307.221 52.333,307.333 52.446,307.333 52.583 C 307.333 52.750,307.500 52.833,307.833 52.833 C 308.167 52.833,308.333 52.917,308.333 53.083 C 308.333 53.250,308.500 53.333,308.833 53.333 C 309.167 53.333,309.333 53.417,309.333 53.583 C 309.333 53.750,309.500 53.833,309.833 53.833 C 310.167 53.833,310.333 53.917,310.333 54.083 C 310.333 54.250,310.500 54.333,310.833 54.333 C 311.167 54.333,311.333 54.417,311.333 54.583 C 311.333 54.769,311.528 54.833,312.083 54.833 C 312.639 54.833,312.833 54.898,312.833 55.083 C 312.833 55.278,313.056 55.333,313.833 55.333 C 314.611 55.333,314.833 55.389,314.833 55.583 C 314.833 55.798,315.333 55.833,318.333 55.833 C 321.333 55.833,321.833 55.798,321.833 55.583 C 321.833 55.383,322.083 55.333,323.083 55.333 C 324.083 55.333,324.333 55.283,324.333 55.083 C 324.333 54.898,324.528 54.833,325.083 54.833 C 325.639 54.833,325.833 54.769,325.833 54.583 C 325.833 54.417,326.000 54.333,326.333 54.333 C 326.667 54.333,326.833 54.250,326.833 54.083 C 326.833 53.917,327.000 53.833,327.333 53.833 C 327.667 53.833,327.833 53.750,327.833 53.583 C 327.833 53.417,328.000 53.333,328.333 53.333 C 328.667 53.333,328.833 53.250,328.833 53.083 C 328.833 52.946,328.946 52.833,329.083 52.833 C 329.221 52.833,329.333 52.721,329.333 52.583 C 329.333 52.417,329.500 52.333,329.833 52.333 C 330.167 52.333,330.333 52.250,330.333 52.083 C 330.333 51.946,330.446 51.833,330.583 51.833 C 330.721 51.833,330.833 51.721,330.833 51.583 C 330.833 51.446,330.946 51.333,331.083 51.333 C 331.221 51.333,331.333 51.221,331.333 51.083 C 331.333 50.946,331.446 50.833,331.583 50.833 C 331.721 50.833,331.833 50.721,331.833 50.583 C 331.833 50.446,331.946 50.333,332.083 50.333 C 332.221 50.333,332.333 50.221,332.333 50.083 C 332.333 49.946,332.446 49.833,332.583 49.833 C 332.721 49.833,332.833 49.721,332.833 49.583 C 332.833 49.444,332.981 49.333,333.167 49.333 C 333.352 49.333,333.500 49.222,333.500 49.083 C 333.500 48.946,333.612 48.833,333.750 48.833 C 333.887 48.833,334.000 48.721,334.000 48.583 C 334.000 48.446,334.112 48.333,334.250 48.333 C 334.417 48.333,334.500 48.167,334.500 47.833 C 334.500 47.500,334.583 47.333,334.750 47.333 C 334.917 47.333,335.000 47.167,335.000 46.833 C 335.000 46.500,335.083 46.333,335.250 46.333 C 335.417 46.333,335.500 46.167,335.500 45.833 C 335.500 45.500,335.583 45.333,335.750 45.333 C 335.917 45.333,336.000 45.167,336.000 44.833 C 336.000 44.500,336.083 44.333,336.250 44.333 C 336.435 44.333,336.500 44.139,336.500 43.583 C 336.500 43.028,336.565 42.833,336.750 42.833 C 336.950 42.833,337.000 42.583,337.000 41.583 C 337.000 40.583,337.050 40.333,337.250 40.333 C 337.464 40.333,337.500 39.833,337.500 36.833 C 337.500 33.833,337.464 33.333,337.250 33.333 C 337.050 33.333,337.000 33.083,337.000 32.083 C 337.000 31.083,336.950 30.833,336.750 30.833 C 336.565 30.833,336.500 30.639,336.500 30.083 C 336.500 29.528,336.435 29.333,336.250 29.333 C 336.083 29.333,336.000 29.167,336.000 28.833 C 336.000 28.500,335.917 28.333,335.750 28.333 C 335.583 28.333,335.500 28.167,335.500 27.833 C 335.500 27.500,335.417 27.333,335.250 27.333 C 335.083 27.333,335.000 27.167,335.000 26.833 C 335.000 26.500,334.917 26.333,334.750 26.333 C 334.583 26.333,334.500 26.167,334.500 25.833 C 334.500 25.500,334.417 25.333,334.250 25.333 C 334.112 25.333,334.000 25.221,334.000 25.083 C 334.000 24.946,333.887 24.833,333.750 24.833 C 333.612 24.833,333.500 24.721,333.500 24.583 C 333.500 24.444,333.352 24.333,333.167 24.333 C 332.981 24.333,332.833 24.222,332.833 24.083 C 332.833 23.946,332.721 23.833,332.583 23.833 C 332.446 23.833,332.333 23.721,332.333 23.583 C 332.333 23.446,332.221 23.333,332.083 23.333 C 331.946 23.333,331.833 23.221,331.833 23.083 C 331.833 22.946,331.721 22.833,331.583 22.833 C 331.446 22.833,331.333 22.721,331.333 22.583 C 331.333 22.446,331.221 22.333,331.083 22.333 C 330.946 22.333,330.833 22.221,330.833 22.083 C 330.833 21.946,330.721 21.833,330.583 21.833 C 330.446 21.833,330.333 21.721,330.333 21.583 C 330.333 21.417,330.167 21.333,329.833 21.333 C 329.500 21.333,329.333 21.250,329.333 21.083 C 329.333 20.946,329.221 20.833,329.083 20.833 C 328.946 20.833,328.833 20.721,328.833 20.583 C 328.833 20.417,328.667 20.333,328.333 20.333 C 328.000 20.333,327.833 20.250,327.833 20.083 C 327.833 19.917,327.667 19.833,327.333 19.833 C 327.000 19.833,326.833 19.750,326.833 19.583 C 326.833 19.417,326.667 19.333,326.333 19.333 C 326.000 19.333,325.833 19.250,325.833 19.083 C 325.833 18.898,325.639 18.833,325.083 18.833 C 324.528 18.833,324.333 18.769,324.333 18.583 C 324.333 18.383,324.083 18.333,323.083 18.333 C 322.083 18.333,321.833 18.283,321.833 18.083 C 321.833 17.869,321.333 17.833,318.333 17.833 C 315.333 17.833,314.833 17.869,314.833 18.083 M352.500 18.083 C 352.500 18.278,352.278 18.333,351.500 18.333 C 350.722 18.333,350.500 18.389,350.500 18.583 C 350.500 18.769,350.306 18.833,349.750 18.833 C 349.194 18.833,349.000 18.898,349.000 19.083 C 349.000 19.250,348.833 19.333,348.500 19.333 C 348.167 19.333,348.000 19.417,348.000 19.583 C 348.000 19.721,347.887 19.833,347.750 19.833 C 347.613 19.833,347.500 19.946,347.500 20.083 C 347.500 20.250,347.333 20.333,347.000 20.333 C 346.667 20.333,346.500 20.417,346.500 20.583 C 346.500 20.721,346.387 20.833,346.250 20.833 C 346.113 20.833,346.000 20.946,346.000 21.083 C 346.000 21.221,345.887 21.333,345.750 21.333 C 345.613 21.333,345.500 21.446,345.500 21.583 C 345.500 21.721,345.387 21.833,345.250 21.833 C 345.083 21.833,345.000 22.000,345.000 22.333 C 345.000 22.667,344.917 22.833,344.750 22.833 C 344.613 22.833,344.500 22.946,344.500 23.083 C 344.500 23.221,344.387 23.333,344.250 23.333 C 344.083 23.333,344.000 23.500,344.000 23.833 C 344.000 24.167,343.917 24.333,343.750 24.333 C 343.565 24.333,343.500 24.528,343.500 25.083 C 343.500 25.639,343.435 25.833,343.250 25.833 C 343.038 25.833,343.000 26.250,343.000 28.583 C 343.000 30.917,343.038 31.333,343.250 31.333 C 343.435 31.333,343.500 31.528,343.500 32.083 C 343.500 32.639,343.565 32.833,343.750 32.833 C 343.917 32.833,344.000 33.000,344.000 33.333 C 344.000 33.667,344.083 33.833,344.250 33.833 C 344.387 33.833,344.500 33.946,344.500 34.083 C 344.500 34.221,344.613 34.333,344.750 34.333 C 344.917 34.333,345.000 34.500,345.000 34.833 C 345.000 35.167,345.083 35.333,345.250 35.333 C 345.387 35.333,345.500 35.446,345.500 35.583 C 345.500 35.721,345.613 35.833,345.750 35.833 C 345.887 35.833,346.000 35.946,346.000 36.083 C 346.000 36.250,346.167 36.333,346.500 36.333 C 346.833 36.333,347.000 36.417,347.000 36.583 C 347.000 36.721,347.113 36.833,347.250 36.833 C 347.387 36.833,347.500 36.946,347.500 37.083 C 347.500 37.250,347.667 37.333,348.000 37.333 C 348.333 37.333,348.500 37.417,348.500 37.583 C 348.500 37.750,348.667 37.833,349.000 37.833 C 349.333 37.833,349.500 37.917,349.500 38.083 C 349.500 38.250,349.667 38.333,350.000 38.333 C 350.333 38.333,350.500 38.417,350.500 38.583 C 350.500 38.769,350.694 38.833,351.250 38.833 C 351.806 38.833,352.000 38.898,352.000 39.083 C 352.000 39.269,352.194 39.333,352.750 39.333 C 353.306 39.333,353.500 39.398,353.500 39.583 C 353.500 39.778,353.722 39.833,354.500 39.833 C 355.278 39.833,355.500 39.889,355.500 40.083 C 355.500 40.283,355.750 40.333,356.750 40.333 C 357.750 40.333,358.000 40.383,358.000 40.583 C 358.000 40.778,358.222 40.833,359.000 40.833 C 359.778 40.833,360.000 40.889,360.000 41.083 C 360.000 41.269,360.194 41.333,360.750 41.333 C 361.306 41.333,361.500 41.398,361.500 41.583 C 361.500 41.769,361.694 41.833,362.250 41.833 C 362.806 41.833,363.000 41.898,363.000 42.083 C 363.000 42.250,363.167 42.333,363.500 42.333 C 363.833 42.333,364.000 42.417,364.000 42.583 C 364.000 42.721,364.113 42.833,364.250 42.833 C 364.417 42.833,364.500 43.000,364.500 43.333 C 364.500 43.667,364.583 43.833,364.750 43.833 C 365.169 43.833,365.100 46.067,364.667 46.500 C 364.483 46.683,364.258 46.833,364.167 46.833 C 364.075 46.833,364.000 47.058,364.000 47.333 C 364.000 47.778,363.944 47.833,363.500 47.833 C 363.167 47.833,363.000 47.917,363.000 48.083 C 363.000 48.250,362.833 48.333,362.500 48.333 C 362.167 48.333,362.000 48.417,362.000 48.583 C 362.000 48.769,361.806 48.833,361.250 48.833 C 360.694 48.833,360.500 48.898,360.500 49.083 C 360.500 49.293,360.139 49.333,358.250 49.333 C 356.361 49.333,356.000 49.293,356.000 49.083 C 356.000 48.898,355.806 48.833,355.250 48.833 C 354.694 48.833,354.500 48.769,354.500 48.583 C 354.500 48.417,354.333 48.333,354.000 48.333 C 353.667 48.333,353.500 48.250,353.500 48.083 C 353.500 47.917,353.333 47.833,353.000 47.833 C 352.667 47.833,352.500 47.750,352.500 47.583 C 352.500 47.446,352.387 47.333,352.250 47.333 C 352.113 47.333,352.000 47.221,352.000 47.083 C 352.000 46.946,351.887 46.833,351.750 46.833 C 351.613 46.833,351.500 46.721,351.500 46.583 C 351.500 46.446,351.387 46.333,351.250 46.333 C 351.113 46.333,351.000 46.221,351.000 46.083 C 351.000 45.946,350.887 45.833,350.750 45.833 C 350.583 45.833,350.500 45.667,350.500 45.333 C 350.500 45.000,350.417 44.833,350.250 44.833 C 350.050 44.833,350.000 44.583,350.000 43.583 L 350.000 42.333 346.500 42.333 L 343.000 42.333 343.000 48.583 L 343.000 54.833 346.500 54.833 L 350.000 54.833 350.000 54.083 C 350.000 53.528,350.065 53.333,350.250 53.333 C 350.387 53.333,350.500 53.446,350.500 53.583 C 350.500 53.750,350.667 53.833,351.000 53.833 C 351.333 53.833,351.500 53.917,351.500 54.083 C 351.500 54.250,351.667 54.333,352.000 54.333 C 352.333 54.333,352.500 54.417,352.500 54.583 C 352.500 54.769,352.694 54.833,353.250 54.833 C 353.806 54.833,354.000 54.898,354.000 55.083 C 354.000 55.278,354.222 55.333,355.000 55.333 C 355.778 55.333,356.000 55.389,356.000 55.583 C 356.000 55.797,356.472 55.833,359.250 55.833 C 362.028 55.833,362.500 55.797,362.500 55.583 C 362.500 55.383,362.750 55.333,363.750 55.333 C 364.750 55.333,365.000 55.283,365.000 55.083 C 365.000 54.898,365.194 54.833,365.750 54.833 C 366.306 54.833,366.500 54.769,366.500 54.583 C 366.500 54.409,366.676 54.333,367.083 54.333 C 367.491 54.333,367.667 54.258,367.667 54.083 C 367.667 53.946,367.779 53.833,367.917 53.833 C 368.054 53.833,368.167 53.721,368.167 53.583 C 368.167 53.417,368.333 53.333,368.667 53.333 C 369.000 53.333,369.167 53.250,369.167 53.083 C 369.167 52.946,369.279 52.833,369.417 52.833 C 369.554 52.833,369.667 52.721,369.667 52.583 C 369.667 52.446,369.779 52.333,369.917 52.333 C 370.054 52.333,370.167 52.221,370.167 52.083 C 370.167 51.946,370.279 51.833,370.417 51.833 C 370.554 51.833,370.667 51.721,370.667 51.583 C 370.667 51.446,370.779 51.333,370.917 51.333 C 371.054 51.333,371.167 51.221,371.167 51.083 C 371.167 50.946,371.279 50.833,371.417 50.833 C 371.583 50.833,371.667 50.667,371.667 50.333 C 371.667 50.000,371.750 49.833,371.917 49.833 C 372.083 49.833,372.167 49.667,372.167 49.333 C 372.167 49.000,372.250 48.833,372.417 48.833 C 372.602 48.833,372.667 48.639,372.667 48.083 C 372.667 47.528,372.731 47.333,372.917 47.333 C 373.129 47.333,373.167 46.917,373.167 44.583 C 373.167 42.250,373.129 41.833,372.917 41.833 C 372.731 41.833,372.667 41.639,372.667 41.083 C 372.667 40.528,372.602 40.333,372.417 40.333 C 372.250 40.333,372.167 40.167,372.167 39.833 C 372.167 39.500,372.083 39.333,371.917 39.333 C 371.779 39.333,371.667 39.221,371.667 39.083 C 371.667 38.946,371.554 38.833,371.417 38.833 C 371.250 38.833,371.167 38.667,371.167 38.333 C 371.167 38.000,371.083 37.833,370.917 37.833 C 370.779 37.833,370.667 37.721,370.667 37.583 C 370.667 37.446,370.554 37.333,370.417 37.333 C 370.279 37.333,370.167 37.221,370.167 37.083 C 370.167 36.946,370.054 36.833,369.917 36.833 C 369.779 36.833,369.667 36.721,369.667 36.583 C 369.667 36.446,369.554 36.333,369.417 36.333 C 369.279 36.333,369.167 36.221,369.167 36.083 C 369.167 35.917,369.000 35.833,368.667 35.833 C 368.333 35.833,368.167 35.750,368.167 35.583 C 368.167 35.417,368.000 35.333,367.667 35.333 C 367.333 35.333,367.167 35.250,367.167 35.083 C 367.167 34.909,366.991 34.833,366.583 34.833 C 366.176 34.833,366.000 34.758,366.000 34.583 C 366.000 34.398,365.806 34.333,365.250 34.333 C 364.694 34.333,364.500 34.269,364.500 34.083 C 364.500 33.889,364.278 33.833,363.500 33.833 C 362.722 33.833,362.500 33.778,362.500 33.583 C 362.500 33.383,362.250 33.333,361.250 33.333 C 360.250 33.333,360.000 33.283,360.000 33.083 C 360.000 32.883,359.750 32.833,358.750 32.833 C 357.750 32.833,357.500 32.783,357.500 32.583 C 357.500 32.389,357.278 32.333,356.500 32.333 C 355.722 32.333,355.500 32.278,355.500 32.083 C 355.500 31.889,355.278 31.833,354.500 31.833 C 353.722 31.833,353.500 31.778,353.500 31.583 C 353.500 31.398,353.306 31.333,352.750 31.333 C 352.194 31.333,352.000 31.269,352.000 31.083 C 352.000 30.917,351.833 30.833,351.500 30.833 C 351.167 30.833,351.000 30.750,351.000 30.583 C 351.000 30.446,350.887 30.333,350.750 30.333 C 350.613 30.333,350.500 30.221,350.500 30.083 C 350.500 29.946,350.387 29.833,350.250 29.833 C 350.050 29.833,350.000 29.583,350.000 28.583 C 350.000 27.583,350.050 27.333,350.250 27.333 C 350.417 27.333,350.500 27.167,350.500 26.833 C 350.500 26.500,350.583 26.333,350.750 26.333 C 350.887 26.333,351.000 26.221,351.000 26.083 C 351.000 25.946,351.113 25.833,351.250 25.833 C 351.387 25.833,351.500 25.721,351.500 25.583 C 351.500 25.417,351.667 25.333,352.000 25.333 C 352.333 25.333,352.500 25.250,352.500 25.083 C 352.500 24.898,352.694 24.833,353.250 24.833 C 353.806 24.833,354.000 24.769,354.000 24.583 C 354.000 24.375,354.333 24.333,356.000 24.333 C 357.667 24.333,358.000 24.375,358.000 24.583 C 358.000 24.778,358.222 24.833,359.000 24.833 C 359.778 24.833,360.000 24.889,360.000 25.083 C 360.000 25.250,360.167 25.333,360.500 25.333 C 360.833 25.333,361.000 25.417,361.000 25.583 C 361.000 25.721,361.113 25.833,361.250 25.833 C 361.387 25.833,361.500 25.946,361.500 26.083 C 361.500 26.221,361.613 26.333,361.750 26.333 C 361.887 26.333,362.000 26.446,362.000 26.583 C 362.000 26.721,362.113 26.833,362.250 26.833 C 362.387 26.833,362.500 26.946,362.500 27.083 C 362.500 27.221,362.613 27.333,362.750 27.333 C 362.887 27.333,363.000 27.446,363.000 27.583 C 363.000 27.721,363.113 27.833,363.250 27.833 C 363.387 27.833,363.500 27.946,363.500 28.083 C 363.500 28.221,363.613 28.333,363.750 28.333 C 363.950 28.333,364.000 28.583,364.000 29.583 L 364.000 30.833 367.583 30.833 L 371.167 30.833 371.167 24.833 L 371.167 18.833 367.583 18.833 L 364.000 18.833 364.000 19.333 C 364.000 19.778,363.944 19.833,363.500 19.833 C 363.167 19.833,363.000 19.750,363.000 19.583 C 363.000 19.417,362.833 19.333,362.500 19.333 C 362.167 19.333,362.000 19.250,362.000 19.083 C 362.000 18.898,361.806 18.833,361.250 18.833 C 360.694 18.833,360.500 18.769,360.500 18.583 C 360.500 18.398,360.306 18.333,359.750 18.333 C 359.194 18.333,359.000 18.269,359.000 18.083 C 359.000 17.870,358.528 17.833,355.750 17.833 C 352.972 17.833,352.500 17.870,352.500 18.083 M320.833 25.083 C 320.833 25.269,321.028 25.333,321.583 25.333 C 322.139 25.333,322.333 25.398,322.333 25.583 C 322.333 25.750,322.500 25.833,322.833 25.833 C 323.167 25.833,323.333 25.917,323.333 26.083 C 323.333 26.250,323.500 26.333,323.833 26.333 C 324.167 26.333,324.333 26.417,324.333 26.583 C 324.333 26.721,324.446 26.833,324.583 26.833 C 324.721 26.833,324.833 26.946,324.833 27.083 C 324.833 27.221,324.946 27.333,325.083 27.333 C 325.221 27.333,325.333 27.446,325.333 27.583 C 325.333 27.721,325.446 27.833,325.583 27.833 C 325.721 27.833,325.833 27.946,325.833 28.083 C 325.833 28.221,325.946 28.333,326.083 28.333 C 326.221 28.333,326.333 28.446,326.333 28.583 C 326.333 28.721,326.446 28.833,326.583 28.833 C 326.721 28.833,326.833 28.946,326.833 29.083 C 326.833 29.221,326.946 29.333,327.083 29.333 C 327.250 29.333,327.333 29.500,327.333 29.833 C 327.333 30.167,327.417 30.333,327.583 30.333 C 327.740 30.333,327.833 30.491,327.833 30.755 C 327.833 30.987,327.946 31.220,328.083 31.273 C 328.221 31.326,328.333 31.551,328.333 31.773 C 328.333 31.995,328.446 32.220,328.583 32.273 C 328.766 32.343,328.833 32.632,328.833 33.351 C 328.833 34.113,328.889 34.333,329.083 34.333 C 329.294 34.333,329.333 34.722,329.333 36.833 C 329.333 38.944,329.294 39.333,329.083 39.333 C 328.889 39.333,328.833 39.556,328.833 40.333 C 328.833 41.111,328.778 41.333,328.583 41.333 C 328.417 41.333,328.333 41.500,328.333 41.833 C 328.333 42.167,328.250 42.333,328.083 42.333 C 327.917 42.333,327.833 42.500,327.833 42.833 C 327.833 43.167,327.750 43.333,327.583 43.333 C 327.417 43.333,327.333 43.500,327.333 43.833 C 327.333 44.167,327.250 44.333,327.083 44.333 C 326.946 44.333,326.833 44.446,326.833 44.583 C 326.833 44.721,326.721 44.833,326.583 44.833 C 326.446 44.833,326.333 44.946,326.333 45.083 C 326.333 45.221,326.221 45.333,326.083 45.333 C 325.946 45.333,325.833 45.446,325.833 45.583 C 325.833 45.721,325.721 45.833,325.583 45.833 C 325.446 45.833,325.333 45.946,325.333 46.083 C 325.333 46.221,325.221 46.333,325.083 46.333 C 324.946 46.333,324.833 46.446,324.833 46.583 C 324.833 46.721,324.721 46.833,324.583 46.833 C 324.446 46.833,324.333 46.946,324.333 47.083 C 324.333 47.250,324.167 47.333,323.833 47.333 C 323.500 47.333,323.333 47.417,323.333 47.583 C 323.333 47.750,323.167 47.833,322.833 47.833 C 322.500 47.833,322.333 47.917,322.333 48.083 C 322.333 48.269,322.139 48.333,321.583 48.333 C 321.028 48.333,320.833 48.398,320.833 48.583 C 320.833 48.793,320.472 48.833,318.583 48.833 C 316.694 48.833,316.333 48.793,316.333 48.583 C 316.333 48.398,316.139 48.333,315.583 48.333 C 315.028 48.333,314.833 48.269,314.833 48.083 C 314.833 47.917,314.667 47.833,314.333 47.833 C 314.000 47.833,313.833 47.750,313.833 47.583 C 313.833 47.417,313.667 47.333,313.333 47.333 C 313.000 47.333,312.833 47.250,312.833 47.083 C 312.833 46.946,312.721 46.833,312.583 46.833 C 312.446 46.833,312.333 46.721,312.333 46.583 C 312.333 46.446,312.221 46.333,312.083 46.333 C 311.946 46.333,311.833 46.221,311.833 46.083 C 311.833 45.946,311.721 45.833,311.583 45.833 C 311.446 45.833,311.333 45.721,311.333 45.583 C 311.333 45.446,311.221 45.333,311.083 45.333 C 310.946 45.333,310.833 45.221,310.833 45.083 C 310.833 44.946,310.721 44.833,310.583 44.833 C 310.446 44.833,310.333 44.721,310.333 44.583 C 310.333 44.446,310.221 44.333,310.083 44.333 C 309.917 44.333,309.833 44.167,309.833 43.833 C 309.833 43.500,309.750 43.333,309.583 43.333 C 309.417 43.333,309.333 43.167,309.333 42.833 C 309.333 42.500,309.250 42.333,309.083 42.333 C 308.917 42.333,308.833 42.167,308.833 41.833 C 308.833 41.500,308.750 41.333,308.583 41.333 C 308.389 41.333,308.333 41.111,308.333 40.333 C 308.333 39.556,308.278 39.333,308.083 39.333 C 307.872 39.333,307.833 38.944,307.833 36.833 C 307.833 34.722,307.872 34.333,308.083 34.333 C 308.278 34.333,308.333 34.111,308.333 33.333 C 308.333 32.556,308.389 32.333,308.583 32.333 C 308.750 32.333,308.833 32.167,308.833 31.833 C 308.833 31.500,308.917 31.333,309.083 31.333 C 309.250 31.333,309.333 31.167,309.333 30.833 C 309.333 30.500,309.417 30.333,309.583 30.333 C 309.750 30.333,309.833 30.167,309.833 29.833 C 309.833 29.500,309.917 29.333,310.083 29.333 C 310.221 29.333,310.333 29.221,310.333 29.083 C 310.333 28.946,310.446 28.833,310.583 28.833 C 310.721 28.833,310.833 28.721,310.833 28.583 C 310.833 28.446,310.946 28.333,311.083 28.333 C 311.221 28.333,311.333 28.221,311.333 28.083 C 311.333 27.946,311.446 27.833,311.583 27.833 C 311.721 27.833,311.833 27.721,311.833 27.583 C 311.833 27.446,311.946 27.333,312.083 27.333 C 312.221 27.333,312.333 27.221,312.333 27.083 C 312.333 26.946,312.446 26.833,312.583 26.833 C 312.721 26.833,312.833 26.721,312.833 26.583 C 312.833 26.417,313.000 26.333,313.333 26.333 C 313.667 26.333,313.833 26.250,313.833 26.083 C 313.833 25.917,314.000 25.833,314.333 25.833 C 314.667 25.833,314.833 25.750,314.833 25.583 C 314.833 25.398,315.028 25.333,315.583 25.333 C 316.139 25.333,316.333 25.269,316.333 25.083 C 316.333 24.873,316.694 24.833,318.583 24.833 C 320.472 24.833,320.833 24.873,320.833 25.083 " stroke="none" fill="#3c94a4" fill-rule="evenodd"></path><path id="path2" d="M98.717 48.667 C 98.717 49.171,98.748 49.377,98.786 49.125 C 98.824 48.873,98.824 48.460,98.786 48.208 C 98.748 47.956,98.717 48.163,98.717 48.667 " stroke="none" fill="#d0b0b8" fill-rule="evenodd"></path><path id="path3" d="M98.717 48.667 C 98.717 49.171,98.748 49.377,98.786 49.125 C 98.824 48.873,98.824 48.460,98.786 48.208 C 98.748 47.956,98.717 48.163,98.717 48.667 " stroke="none" fill="#d0b0b8" fill-rule="evenodd"></path><path id="path4" d="M98.717 48.667 C 98.717 49.171,98.748 49.377,98.786 49.125 C 98.824 48.873,98.824 48.460,98.786 48.208 C 98.748 47.956,98.717 48.163,98.717 48.667 " stroke="none" fill="#d0b0b8" fill-rule="evenodd"></path></g></svg>